<?xml version="1.0" encoding="UTF-8" standalone="no"?>
<!-- Created with Inkscape (http://www.inkscape.org/) -->

<svg
   xmlns:dc="http://purl.org/dc/elements/1.1/"
   xmlns:cc="http://creativecommons.org/ns#"
   xmlns:rdf="http://www.w3.org/1999/02/22-rdf-syntax-ns#"
   xmlns:svg="http://www.w3.org/2000/svg"
   xmlns="http://www.w3.org/2000/svg"
   xmlns:xlink="http://www.w3.org/1999/xlink"
   xmlns:sodipodi="http://sodipodi.sourceforge.net/DTD/sodipodi-0.dtd"
   xmlns:inkscape="http://www.inkscape.org/namespaces/inkscape"
   version="1.1"
   id="svg815"
   xml:space="preserve"
   width="234.33067"
   height="442.20532"
   viewBox="0 0 234.33067 442.20532"
   sodipodi:docname="Hydra_Black.svg"
   inkscape:version="0.92.5 (2060ec1f9f, 2020-04-08)"><metadata
     id="metadata821"><rdf:RDF><cc:Work
         rdf:about=""><dc:format>image/svg+xml</dc:format><dc:type
           rdf:resource="http://purl.org/dc/dcmitype/StillImage" /><dc:title></dc:title></cc:Work></rdf:RDF></metadata><defs
     id="defs819"><inkscape:path-effect
       effect="bspline"
       id="path-effect3434-8-2-3-8-9"
       is_visible="true"
       weight="33.333333"
       steps="2"
       helper_size="0"
       apply_no_weight="true"
       apply_with_weight="true"
       only_selected="false" /><inkscape:path-effect
       effect="bspline"
       id="path-effect3539-0-6-06-4-8-1"
       is_visible="true"
       weight="33.333333"
       steps="2"
       helper_size="0"
       apply_no_weight="true"
       apply_with_weight="true"
       only_selected="false" /><inkscape:path-effect
       effect="bspline"
       id="path-effect3491-4-8-5-2-4-5"
       is_visible="true"
       weight="33.333333"
       steps="2"
       helper_size="0"
       apply_no_weight="true"
       apply_with_weight="true"
       only_selected="false" /><inkscape:path-effect
       effect="bspline"
       id="path-effect3434-8-2-5-8-1"
       is_visible="true"
       weight="33.333333"
       steps="2"
       helper_size="0"
       apply_no_weight="true"
       apply_with_weight="true"
       only_selected="false" /><inkscape:path-effect
       effect="bspline"
       id="path-effect3539-0-6-06-6-7-7"
       is_visible="true"
       weight="33.333333"
       steps="2"
       helper_size="0"
       apply_no_weight="true"
       apply_with_weight="true"
       only_selected="false" /><inkscape:path-effect
       effect="bspline"
       id="path-effect3491-4-8-5-5-4-7"
       is_visible="true"
       weight="33.333333"
       steps="2"
       helper_size="0"
       apply_no_weight="true"
       apply_with_weight="true"
       only_selected="false" /><inkscape:path-effect
       effect="bspline"
       id="path-effect3463-4-8-3-6-5"
       is_visible="true"
       weight="33.333333"
       steps="2"
       helper_size="0"
       apply_no_weight="true"
       apply_with_weight="true"
       only_selected="false" /><inkscape:path-effect
       effect="bspline"
       id="path-effect3535-5-7-8-2-3"
       is_visible="true"
       weight="33.333333"
       steps="2"
       helper_size="0"
       apply_no_weight="true"
       apply_with_weight="true"
       only_selected="false" /><inkscape:path-effect
       effect="bspline"
       id="path-effect3434-8-2-3-8-9-1"
       is_visible="true"
       weight="33.333333"
       steps="2"
       helper_size="0"
       apply_no_weight="true"
       apply_with_weight="true"
       only_selected="false" /><inkscape:path-effect
       effect="bspline"
       id="path-effect3539-0-6-06-4-8-1-1"
       is_visible="true"
       weight="33.333333"
       steps="2"
       helper_size="0"
       apply_no_weight="true"
       apply_with_weight="true"
       only_selected="false" /><inkscape:path-effect
       effect="bspline"
       id="path-effect3491-4-8-5-2-4-5-8"
       is_visible="true"
       weight="33.333333"
       steps="2"
       helper_size="0"
       apply_no_weight="true"
       apply_with_weight="true"
       only_selected="false" /><inkscape:path-effect
       effect="bspline"
       id="path-effect3434-8-2-5-8-1-1"
       is_visible="true"
       weight="33.333333"
       steps="2"
       helper_size="0"
       apply_no_weight="true"
       apply_with_weight="true"
       only_selected="false" /><inkscape:path-effect
       effect="bspline"
       id="path-effect3539-0-6-06-6-7-7-2"
       is_visible="true"
       weight="33.333333"
       steps="2"
       helper_size="0"
       apply_no_weight="true"
       apply_with_weight="true"
       only_selected="false" /><inkscape:path-effect
       effect="bspline"
       id="path-effect3491-4-8-5-5-4-7-8"
       is_visible="true"
       weight="33.333333"
       steps="2"
       helper_size="0"
       apply_no_weight="true"
       apply_with_weight="true"
       only_selected="false" /><inkscape:path-effect
       effect="bspline"
       id="path-effect3463-4-8-3-6-5-0"
       is_visible="true"
       weight="33.333333"
       steps="2"
       helper_size="0"
       apply_no_weight="true"
       apply_with_weight="true"
       only_selected="false" /><inkscape:path-effect
       effect="bspline"
       id="path-effect3535-5-7-8-2-3-2"
       is_visible="true"
       weight="33.333333"
       steps="2"
       helper_size="0"
       apply_no_weight="true"
       apply_with_weight="true"
       only_selected="false" /></defs><sodipodi:namedview
     pagecolor="#ffffff"
     bordercolor="#666666"
     borderopacity="1"
     objecttolerance="10"
     gridtolerance="10"
     guidetolerance="10"
     inkscape:pageopacity="0"
     inkscape:pageshadow="2"
     inkscape:window-width="640"
     inkscape:window-height="480"
     id="namedview817"
     showgrid="false"
     inkscape:zoom="2.8284271"
     inkscape:cx="134.60086"
     inkscape:cy="212.09033"
     inkscape:current-layer="g4097"
     inkscape:showpageshadow="false"
     inkscape:pagecheckerboard="false" /><g
     style="display:inline"
     inkscape:label="WHITE"
     id="g4097"
     inkscape:groupmode="layer"><path
   inkscape:connector-curvature="0"
   id="path3975"
   d="M 117.12883,259.65248 Z"
   style="fill:none;stroke:#000000;stroke-width:1.12613392px;stroke-linecap:butt;stroke-linejoin:miter;stroke-opacity:1" /><path
   inkscape:connector-curvature="0"
   id="path3977"
   d="M 118.19302,215.66619 Z"
   style="fill:none;stroke:#000000;stroke-width:1.12613392px;stroke-linecap:butt;stroke-linejoin:miter;stroke-opacity:1" /><path
   inkscape:connector-curvature="0"
   id="path3979"
   d="M 117.12883,259.65248 Z"
   style="fill:none;stroke:#000000;stroke-width:1.12613392px;stroke-linecap:butt;stroke-linejoin:miter;stroke-opacity:1" /><circle
   r="1.4173229"
   cy="77.104309"
   cx="40.319328"
   id="circle3999"
   style="opacity:1;fill:#ffffff;fill-opacity:1;fill-rule:evenodd;stroke:none;stroke-width:1.07139528" /><circle
   style="opacity:1;fill:#ffffff;fill-opacity:1;fill-rule:evenodd;stroke:none;stroke-width:1.07139528"
   id="circle4001"
   cx="117.1288"
   cy="77.104309"
   r="1.4173229" /><circle
   r="1.4173229"
   cy="77.104309"
   cx="193.93826"
   id="circle4003"
   style="opacity:1;fill:#ffffff;fill-opacity:1;fill-rule:evenodd;stroke:none;stroke-width:1.07139528" /><circle
   style="opacity:1;fill:#ffffff;fill-opacity:1;fill-rule:evenodd;stroke:none;stroke-width:1.07139528"
   id="circle4005"
   cx="193.93826"
   cy="173.11995"
   r="1.4173229" /><circle
   r="1.4173229"
   cy="173.11995"
   cx="40.319328"
   id="circle4007"
   style="opacity:1;fill:#ffffff;fill-opacity:1;fill-rule:evenodd;stroke:none;stroke-width:1.07139528" /><circle
   r="1.4173229"
   cy="269.10971"
   cx="90.726562"
   id="circle4009"
   style="opacity:1;fill:#ffffff;fill-opacity:1;fill-rule:evenodd;stroke:none;stroke-width:1.07139528" /><circle
   style="opacity:1;fill:#ffffff;fill-opacity:1;fill-rule:evenodd;stroke:none;stroke-width:1.07139528"
   id="circle4011"
   cx="143.52565"
   cy="269.10971"
   r="1.4173229" /><circle
   r="1.4173229"
   cy="391.50742"
   cx="117.1288"
   id="circle4013"
   style="opacity:1;fill:#ffffff;fill-opacity:1;fill-rule:evenodd;stroke:none;stroke-width:1.07139528" /><circle
   style="opacity:1;fill:#ffffff;fill-opacity:1;fill-rule:evenodd;stroke:none;stroke-width:1.07139528"
   id="circle4015"
   cx="117.1288"
   cy="326.85971"
   r="1.4173229" /><text
   id="text4041"
   y="16.869097"
   x="96.757301"
   style="font-style:normal;font-variant:normal;font-weight:normal;font-stretch:normal;font-size:24px;line-height:1.25;font-family:'HoloLens MDL2 Assets';-inkscape-font-specification:'HoloLens MDL2 Assets';letter-spacing:0px;word-spacing:0px;fill:#ffffff;fill-opacity:1;stroke:none;stroke-width:0.25;stroke-miterlimit:4;stroke-dasharray:none;stroke-opacity:1"
   xml:space="preserve"><tspan
     style="font-style:normal;font-variant:normal;font-weight:normal;font-stretch:normal;font-size:16px;font-family:Eurostile-Bold;-inkscape-font-specification:Eurostile-Bold;fill:#ffffff;fill-opacity:1;stroke:none;stroke-width:0.25;stroke-miterlimit:4;stroke-dasharray:none;stroke-opacity:1"
     y="16.869097"
     x="96.757301"
     id="tspan4039"
     sodipodi:role="line">9VDC</tspan></text>

<text
   id="text4049"
   y="221.70532"
   x="179.35689"
   style="font-style:normal;font-variant:normal;font-weight:normal;font-stretch:normal;font-size:24px;line-height:1.25;font-family:'HoloLens MDL2 Assets';-inkscape-font-specification:'HoloLens MDL2 Assets';letter-spacing:0px;word-spacing:0px;fill:#ffffff;fill-opacity:1;stroke:none"
   xml:space="preserve"><tspan
     style="font-style:normal;font-variant:normal;font-weight:normal;font-stretch:normal;font-size:16px;font-family:Eurostile-Bold;-inkscape-font-specification:Eurostile-Bold;fill:#ffffff;stroke:none"
     y="221.70532"
     x="179.35689"
     id="tspan4047"
     sodipodi:role="line">MIX</tspan></text>

<text
   id="text4053"
   y="221.70532"
   x="18.207079"
   style="font-style:normal;font-variant:normal;font-weight:normal;font-stretch:normal;font-size:24px;line-height:1.25;font-family:'HoloLens MDL2 Assets';-inkscape-font-specification:'HoloLens MDL2 Assets';letter-spacing:0px;word-spacing:0px;fill:#ffffff;fill-opacity:1;stroke:none"
   xml:space="preserve"><tspan
     style="font-style:normal;font-variant:normal;font-weight:normal;font-stretch:normal;font-size:16px;font-family:Eurostile-Bold;-inkscape-font-specification:Eurostile-Bold;fill:#ffffff;stroke:none"
     y="221.70532"
     x="18.207079"
     id="tspan4051"
     sodipodi:role="line">LEVEL</tspan></text>

<text
   id="text4057"
   y="125.04932"
   x="16.482578"
   style="font-style:normal;font-variant:normal;font-weight:normal;font-stretch:normal;font-size:24px;line-height:1.25;font-family:'HoloLens MDL2 Assets';-inkscape-font-specification:'HoloLens MDL2 Assets';letter-spacing:0px;word-spacing:0px;fill:#ffffff;fill-opacity:1;stroke:none"
   xml:space="preserve"><tspan
     style="font-style:normal;font-variant:normal;font-weight:normal;font-stretch:normal;font-size:16px;font-family:Eurostile-Bold;-inkscape-font-specification:Eurostile-Bold;fill:#ffffff;stroke:none"
     y="125.04932"
     x="16.482578"
     id="tspan4055"
     sodipodi:role="line">SPEED</tspan></text>

<text
   id="text4061"
   y="125.04932"
   x="91.748177"
   style="font-style:normal;font-variant:normal;font-weight:normal;font-stretch:normal;font-size:24px;line-height:1.25;font-family:'HoloLens MDL2 Assets';-inkscape-font-specification:'HoloLens MDL2 Assets';letter-spacing:0px;word-spacing:0px;fill:#ffffff;fill-opacity:1;stroke:none"
   xml:space="preserve"><tspan
     style="font-style:normal;font-variant:normal;font-weight:normal;font-stretch:normal;font-size:16px;font-family:Eurostile-Bold;-inkscape-font-specification:Eurostile-Bold;fill:#ffffff;stroke:none"
     y="125.04932"
     x="91.748177"
     id="tspan4059"
     sodipodi:role="line">SWELL</tspan></text>

<text
   inkscape:transform-center-y="-2.5"
   id="text4065"
   y="125.04932"
   x="179.73552"
   style="font-style:normal;font-variant:normal;font-weight:normal;font-stretch:normal;font-size:24px;line-height:1.25;font-family:'HoloLens MDL2 Assets';-inkscape-font-specification:'HoloLens MDL2 Assets';letter-spacing:0px;word-spacing:0px;fill:#ffffff;fill-opacity:1;stroke:none"
   xml:space="preserve"><tspan
     style="font-style:normal;font-variant:normal;font-weight:normal;font-stretch:normal;font-size:16px;font-family:Eurostile-Bold;-inkscape-font-specification:Eurostile-Bold;fill:#ffffff;stroke:none"
     y="125.04932"
     x="179.73552"
     id="tspan4063"
     sodipodi:role="line">AGE</tspan></text>

<text
   id="text4069"
   y="300.01917"
   x="33.868832"
   style="font-style:normal;font-variant:normal;font-weight:normal;font-stretch:normal;font-size:24px;line-height:1.25;font-family:'HoloLens MDL2 Assets';-inkscape-font-specification:'HoloLens MDL2 Assets';letter-spacing:0px;word-spacing:0px;fill:#ffffff;fill-opacity:1;stroke:none"
   xml:space="preserve"><tspan
     id="tspan4067"
     style="font-style:normal;font-variant:normal;font-weight:normal;font-stretch:normal;font-size:16px;font-family:Eurostile-Bold;-inkscape-font-specification:Eurostile-Bold;fill:#ffffff;stroke:none"
     y="300.01917"
     x="33.868832"
     sodipodi:role="line">1</tspan></text>

<text
   id="text4073"
   y="300.01917"
   x="191.37349"
   style="font-style:normal;font-variant:normal;font-weight:normal;font-stretch:normal;font-size:24px;line-height:1.25;font-family:'HoloLens MDL2 Assets';-inkscape-font-specification:'HoloLens MDL2 Assets';letter-spacing:0px;word-spacing:0px;fill:#ffffff;fill-opacity:1;stroke:none"
   xml:space="preserve"><tspan
     id="tspan4071"
     style="font-style:normal;font-variant:normal;font-weight:normal;font-stretch:normal;font-size:16px;font-family:Eurostile-Bold;-inkscape-font-specification:Eurostile-Bold;fill:#ffffff;stroke:none"
     y="300.01917"
     x="191.37349"
     sodipodi:role="line">4</tspan></text>

<text
   id="text4077"
   y="300.09915"
   x="138.61365"
   style="font-style:normal;font-variant:normal;font-weight:normal;font-stretch:normal;font-size:24px;line-height:1.25;font-family:'HoloLens MDL2 Assets';-inkscape-font-specification:'HoloLens MDL2 Assets';letter-spacing:0px;word-spacing:0px;fill:#ffffff;fill-opacity:1;stroke:none"
   xml:space="preserve"><tspan
     id="tspan4075"
     style="font-style:normal;font-variant:normal;font-weight:normal;font-stretch:normal;font-size:16px;font-family:Eurostile-Bold;-inkscape-font-specification:Eurostile-Bold;fill:#ffffff;stroke:none"
     y="300.09915"
     x="138.61365"
     sodipodi:role="line">3</tspan></text>

<text
   id="text4081"
   y="300.05115"
   x="85.902565"
   style="font-style:normal;font-variant:normal;font-weight:normal;font-stretch:normal;font-size:24px;line-height:1.25;font-family:'HoloLens MDL2 Assets';-inkscape-font-specification:'HoloLens MDL2 Assets';letter-spacing:0px;word-spacing:0px;fill:#ffffff;fill-opacity:1;stroke:none"
   xml:space="preserve"><tspan
     id="tspan4079"
     style="font-style:normal;font-variant:normal;font-weight:normal;font-stretch:normal;font-size:16px;font-family:Eurostile-Bold;-inkscape-font-specification:Eurostile-Bold;fill:#ffffff;stroke:none"
     y="300.05115"
     x="85.902565"
     sodipodi:role="line">2</tspan></text>

<circle
   transform="matrix(-0.88769711,0.46042789,0.46042789,0.88769711,0,0)"
   r="130.41051"
   cy="252.61566"
   cx="1.0703859"
   id="circle4095"
   style="fill:none;fill-opacity:1;fill-rule:evenodd;stroke:none;stroke-width:0.25;stroke-miterlimit:4;stroke-dasharray:none;stroke-opacity:1" /></g><g
     inkscape:groupmode="layer"
     id="layer1"
     inkscape:label="COLOR"
     style="display:inline"><path
   style="fill:none;stroke:#ff4000;stroke-width:1.12613392px;stroke-linecap:butt;stroke-linejoin:miter;stroke-opacity:1"
   d="M 117.12883,259.65248 Z"
   id="path929"
   inkscape:connector-curvature="0" /><path
   style="fill:none;stroke:#ff4000;stroke-width:1.12613392px;stroke-linecap:butt;stroke-linejoin:miter;stroke-opacity:1"
   d="M 118.19302,215.66619 Z"
   id="path931"
   inkscape:connector-curvature="0" /><path
   style="fill:none;stroke:#ff4000;stroke-width:1.12613392px;stroke-linecap:butt;stroke-linejoin:miter;stroke-opacity:1"
   d="M 117.12883,259.65248 Z"
   id="path933"
   inkscape:connector-curvature="0" /><path
   style="fill:#cc0000;fill-opacity:1;stroke:#ff4000;stroke-width:0.42562541;stroke-linecap:butt;stroke-linejoin:miter;stroke-miterlimit:4;stroke-dasharray:none;stroke-opacity:1"
   d="m 156.08051,185.54195 c 0,0 -4.08224,9.43137 -14.99166,6.61604 0,0 -2.39303,-1.05574 -2.88572,1.47806 l 0.21115,2.95611 c 0,0 -2.60418,1.82997 -4.223,6.05297 0,0 6.82719,2.95611 16.04741,0.14069 9.22022,-2.81533 19.35543,-4.50453 24.28226,-30.40562 0.8446,-0.70376 0.77422,-12.59855 12.59862,-15.27312 0,0 7.46064,-1.90035 12.24671,0.8446 0,0 0.8446,2.46342 4.57492,3.37841 0.0704,0.91498 0,3.58955 0.91498,3.58955 0.63345,0.35191 3.02649,0.28153 4.08224,2.04111 1.05575,1.75959 -2.32265,3.30802 -2.32265,3.30802 l -0.0704,2.25227 c 0,0 0.8446,1.61882 1.90036,1.61882 1.05575,0 0.77421,2.60418 0.77421,2.60418 0,0 -2.04112,1.19652 -3.16725,0.28154 -1.12613,-0.91499 -2.18188,2.46341 -2.18188,2.46341 0,0 0,2.95611 0.35191,3.58956 0.35192,0.63345 -1.2669,1.19651 -1.2669,1.19651 0,0 -4.29338,-0.49268 -4.85645,-0.0704 -0.56307,0.4223 -0.49268,1.40767 -0.49268,1.40767 0,0 -1.75959,2.9561 -3.02649,-0.4223 l 5e-5,-0.84457 c 0,0 0.4223,-0.77422 -2.74495,-0.49268 0,0 -1.61882,1.05575 -1.90036,1.6892 -0.28153,0.63345 -1.75958,-0.14069 -1.75958,-0.14069 0,0 -0.4223,-0.49269 -1.2669,-0.91499 -0.8446,-0.42231 -3.65994,-2.46341 -3.58955,-4.36377 l -2.1115,-0.21122 c 0,0 -1.33729,0.1407 -1.54844,1.82997 l 0.1407,2.88571 c 0,0 3.51917,9.22023 19.84811,10.76866 16.32893,1.54843 18.65158,-6.54565 18.65158,-6.54565 0,0 2.81534,-5.20837 2.5338,-11.33173 -0.28153,-6.12335 -0.28153,-8.51638 -1.6892,-11.61325 -1.40766,-3.09687 -4.01185,-14.78051 -22.10037,-18.29968 -2.60411,-0.1407 -14.14698,-0.1407 -14.14698,-0.1407 0,0 -4.08224,1.97074 -8.86831,1.12614 0,0 -1.97073,0.0703 -1.6892,1.75951 0.28154,1.6892 -1.47805,3.09687 -1.90035,3.09687 -0.4223,0 -0.49268,0.91499 -5.0676,1.47805 0,0 -1.54844,-0.0704 -2.46342,1.05575 0,1.2669 0.28153,7.03834 0.28153,7.03834 0,0 -0.56306,0.91498 -4.50453,1.05575 -0.21115,0.49268 -3.94147,4.92684 0.4223,9.57214 -0.21115,0.56307 1.40767,1.97073 -0.28153,2.60418 h -3.37841 c 0,0 -2.88571,2.25225 0.63345,9.2906 z"
   id="path968"
   inkscape:connector-curvature="0" /><path
   style="fill:#cc0000;fill-opacity:1;stroke:#ff4000;stroke-width:0.42562541;stroke-linecap:butt;stroke-linejoin:miter;stroke-miterlimit:4;stroke-dasharray:none;stroke-opacity:1"
   d="m 78.177049,185.54195 c 0,0 4.082235,9.43137 14.99165,6.61604 0,0 2.393034,-1.05574 2.885725,1.47806 l -0.211157,2.95611 c 0,0 2.604191,1.82997 4.223003,6.05297 0,0 -6.827181,2.95611 -16.047409,0.14069 -9.220214,-2.81533 -19.35542,-4.50453 -24.282256,-30.40562 -0.844596,-0.70376 -0.77422,-12.59855 -12.598626,-15.27312 0,0 -7.460637,-1.90035 -12.246705,0.8446 0,0 -0.8446,2.46342 -4.574912,3.37841 -0.07042,0.91498 0,3.58955 -0.914991,3.58955 -0.633443,0.35191 -3.026478,0.28153 -4.082235,2.04111 -1.055744,1.75959 2.322658,3.30802 2.322658,3.30802 l 0.07042,2.25227 c 0,0 -0.844601,1.61882 -1.900344,1.61882 -1.055758,0 -0.774224,2.60418 -0.774224,2.60418 0,0 2.041124,1.19652 3.167258,0.28154 1.126134,-0.91499 2.181878,2.46341 2.181878,2.46341 0,0 0,2.95611 -0.35191,3.58956 -0.351924,0.63345 1.2669,1.19651 1.2669,1.19651 0,0 4.293379,-0.49268 4.856446,-0.0704 0.563067,0.4223 0.49269,1.40767 0.49269,1.40767 0,0 1.759578,2.9561 3.026477,-0.4223 l -4.5e-5,-0.84457 c 0,0 -0.4223,-0.77422 2.74496,-0.49268 0,0 1.618809,1.05575 1.900343,1.6892 0.281533,0.63345 1.759592,-0.14069 1.759592,-0.14069 0,0 0.4223,-0.49269 1.2669,-0.91499 0.844601,-0.42231 3.659936,-2.46341 3.589544,-4.36377 l 2.111501,-0.21122 c 0,0 1.337292,0.1407 1.548435,1.82997 l -0.140692,2.88571 c 0,0 -3.519168,9.22023 -19.84811,10.76866 -16.32894,1.54843 -18.651585,-6.54565 -18.651585,-6.54565 0,0 -2.815334,-5.20837 -2.533801,-11.33173 0.281534,-6.12335 0.281534,-8.51638 1.689201,-11.61325 1.407667,-3.09687 4.011845,-14.78051 22.100378,-18.29968 2.604101,-0.1407 14.146974,-0.1407 14.146974,-0.1407 0,0 4.082235,1.97074 8.868304,1.12614 0,0 1.970734,0.0703 1.689201,1.75951 -0.281534,1.6892 1.478059,3.09687 1.900359,3.09687 0.4223,0 0.492675,0.91499 5.067601,1.47805 0,0 1.548434,-0.0704 2.463408,1.05575 0,1.2669 -0.281534,7.03834 -0.281534,7.03834 0,0 0.563067,0.91498 4.504536,1.05575 0.211158,0.49268 3.941469,4.92684 -0.4223,9.57214 0.211158,0.56307 -1.407668,1.97073 0.281533,2.60418 h 3.378402 c 0,0 2.885726,2.25225 -0.633442,9.2906 z"
   id="path968-7"
   inkscape:connector-curvature="0" /><path
   style="fill:#cc0000;fill-opacity:1;stroke:#ff4000;stroke-width:0.42562541;stroke-linecap:butt;stroke-linejoin:miter;stroke-miterlimit:4;stroke-dasharray:none;stroke-opacity:1"
   d="m 114.60938,215.66602 c -6.32599,0.82771 -9.51954,9.51953 -9.51954,9.51953 l -3.01562,2.36328 c 0,0 -5.201124,-1.12225 -6.738282,-0.11719 -1.537158,1.00506 -2.6023,4.96597 -2.957032,4.84766 -0.354718,-0.11824 -4.552054,0.29476 -4.847656,0.53125 -0.295602,0.23648 -0.295666,-0.53194 -2.837891,-0.23633 -2.54221,0.29561 -2.83789,2.36523 -2.83789,2.36523 0,0 -0.59118,3.60759 -3.72461,3.3711 -3.133429,-0.23649 -4.197265,3.60547 -4.197265,3.60547 L 61.28125,272.36328 c 0,0 -0.05911,5.32217 0,6.20899 0,3.66552 1.064453,4.61132 1.064453,4.61132 l 26.191406,21.46094 c 3.488162,2.66047 10.640994,0.76856 10.81836,0.65039 8.454361,-2.66046 11.942671,-5.14528 12.238281,-5.5 4.13849,-5.2618 3.96094,-10.28711 3.96094,-10.28711 l 0.11914,-29.85547 c -1.65538,-2.89696 -5.91281,-5.85311 -7.80469,-7.21289 -1.89188,-1.3598 -2.66016,0.65039 -2.66016,0.65039 0,0 -0.47438,3.13384 -0.0605,4.55274 0.41384,1.41892 4.84939,6.91633 4.43554,6.44336 -0.41385,-0.47297 -1.41992,0.94726 -1.41992,0.94726 0,0 -0.11735,3.07268 0.11914,3.90039 4.84795,1.41892 3.01563,5.32227 3.01563,5.32227 -7.68578,0.23649 -2.60156,6.08984 -2.60156,6.08984 0.70944,3.0743 -1.42043,2.0091 -1.36133,2.30469 -5.73477,-0.0591 -7.15235,0.5918 -7.15235,0.5918 0,0 0.1177,2.71972 0.0586,3.48828 -0.650334,3.3108 -5.261721,-1.83399 -5.261721,-1.83399 l -2.306641,0.82813 c -0.688887,0.97255 -1.298156,1.6054 -1.841797,1.98828 1.409598,0.007 2.620809,0.19555 3.664063,0.77734 0.73379,0.39954 1.254067,1.09818 1.527344,1.82227 0.274713,0.7279 0.365234,1.50335 0.365234,2.36328 0,0.83539 -0.07785,1.57824 -0.314453,2.2793 -0.236609,0.70106 -0.683173,1.40654 -1.396485,1.83203 a 1.6392864,1.6392864 0 0 1 -0.0078,0.004 c -0.0051,0.003 -0.01248,0.003 -0.01758,0.006 h 0.09766 a 1.6392864,1.6392864 0 0 1 1.638672,1.63867 v 1.61523 a 1.6392864,1.6392864 0 0 1 -1.638672,1.63867 h -8.046875 a 1.6392864,1.6392864 0 0 1 -1.638672,-1.63867 v -2.20703 c 0,-1.18172 0.332393,-2.2757 1.095703,-3.11133 a 1.6392864,1.6392864 0 0 1 -1.095703,-1.54492 v -0.46484 -0.0156 -0.0312 -0.28906 a 1.6392864,1.6392864 0 0 1 0.0078,-0.16406 c 0.0056,-0.0557 0.0078,-0.0991 0.0078,-0.13868 a 1.6392864,1.6392864 0 0 1 0.002,-0.084 c 0.02758,-0.53774 0.117394,-1.06949 0.277344,-1.58203 0.231648,-0.75551 0.769065,-1.41588 1.402344,-1.83203 a 1.6392864,1.6392864 0 0 0 0.002,-0.002 c 0.467237,-0.30612 0.98897,-0.52866 1.53125,-0.65625 0.132934,-0.0313 0.26817,-0.0517 0.402344,-0.0762 -1.603484,-1.23499 -1.994141,-5.55468 -1.994141,-5.55468 0.472976,-1.12332 -6.5625,-0.35547 -6.5625,-0.35547 -0.236488,-7.15368 -1.773437,-7.1543 -1.773437,-7.1543 C 76.002322,274.60975 75.412109,273.25 75.412109,273.25 l -0.177734,-1.24023 c 1.537113,-2.42397 -0.06055,-5.5 -0.06055,-5.5 0,0 -0.117754,-2.12753 -0.05859,-2.71875 10.937462,-20.75162 26.899715,-20.51492 27.195315,-20.81055 7.15369,-0.11824 7.15399,-1.41832 7.62695,-1.5957 2.42399,-3.36991 4.84766,-5.61719 4.84766,-5.61719 0.4045,-15.95556 0.0913,-19.26984 -0.082,-19.94141 h 0.002 c -0.0549,-0.21185 -0.0957,-0.16015 -0.0957,-0.16015 z M 90.75,292.58594 c -0.42947,0 -0.355504,-0.0118 -0.46875,0.008 -0.0076,0.0967 -0.01953,0.10796 -0.01953,0.24219 v 0.19336 c 0.05026,-0.006 0.09667,-0.0148 0.148437,-0.0195 a 1.6392864,1.6392864 0 0 1 0.01172,0 c 0.08469,-0.007 0.141611,-0.0166 0.166016,-0.0215 a 1.6392864,1.6392864 0 0 1 0.128906,-0.0195 c 0.291588,-0.0346 0.307934,-0.059 0.419922,-0.0957 0.01282,-0.0633 0.02344,-0.0529 0.02344,-0.19727 0,-0.0428 -0.0045,-0.0303 -0.0059,-0.0684 -0.136789,-0.0252 -0.07183,-0.0215 -0.404297,-0.0215 z m -1.257812,0.56836 -0.251954,0.0625 c 0.07342,-0.0245 0.151217,-0.0344 0.226563,-0.0527 0.0099,-0.002 0.01548,-0.008 0.02539,-0.01 z"
   id="path916-6"
   inkscape:connector-curvature="0" /><path
   style="fill:#cc0000;fill-opacity:1;stroke:#ff4000;stroke-width:0.42562541;stroke-linecap:butt;stroke-linejoin:miter;stroke-miterlimit:4;stroke-dasharray:none;stroke-opacity:1"
   d="m 65.375,198.55664 c -0.67799,0.0248 -1.511659,0.15496 -2.541016,0.46289 -0.457492,0.24634 -1.478515,1.16211 -1.478515,1.16211 0,0 -2.146029,1.65354 -4.539063,-1.47852 -0.527872,-0.0704 -14.464843,-0.0352 -14.464844,-0.0352 l -10.310546,0.31641 c -0.387104,0.24628 -4.152423,-0.35055 -7.953125,2.5 -3.800702,2.85051 -5.34887,3.20127 -8.023438,6.96679 -0.03514,0.24634 -1.514665,4.33015 -0.529297,21.71485 0,0.35191 3.096778,23.50729 23.367188,43.42578 0,0 2.464388,2.2526 4.857422,1.61914 1.196511,0.0704 11.543615,-0.21111 14.78125,-1.97071 0.985367,-0.91497 1.407281,-0.98637 2.322265,-2.88671 0.914984,-1.90036 9.219319,-19.28421 12.527344,-31.88282 -0.07042,-1.6892 -0.06914,-2.74563 -1.265625,-5.13867 -0.07042,-0.70383 0.210937,-1.83008 0.210938,-1.83008 0,0 -1.830049,-1.19692 -3.800782,-5.41992 0,0 -6.264442,6.33613 -1.61914,11.9668 0,0 1.055808,1.05441 -0.07031,1.33594 -1.126134,0.28154 -1.760443,1.33797 -3.027344,1.26757 -1.2669,-0.0704 -0.49247,4.4345 -0.210937,5.49024 -0.140766,0.70383 0.633663,1.26602 -0.210938,2.81445 0,0 -2.815448,-0.3522 -5.701172,0.28125 -2.88571,0.63345 -2.251953,1.83008 -2.251953,1.83008 0,0 0.211224,1.97049 -0.140625,2.18164 -0.35191,0.21115 -0.422064,1.19776 -2.18164,0.70508 -0.774225,-0.70383 -1.267011,-2.95608 -5.701172,-1.9707 -1.829967,0.56306 -1.267121,0.35206 -3.660156,3.73046 0,0 -1.196557,-0.98646 -1.900391,-0.8457 0,0 0.562956,-2.95647 -1.830078,-3.51953 -0.351925,0.14068 -2.955078,0.0703 -2.955078,0.0703 0,0 -0.986785,0.28221 -2.464844,1.26758 -1.2669,0.70383 -1.830078,0.0703 -1.830078,0.0703 0,0 -0.42145,-0.5625 -0.84375,-0.5625 -0.07042,-0.35191 -0.703519,-2.25158 1.619141,-4.57422 l 0.07031,-3.16797 c 0,0 -0.211834,-0.84534 -1.267578,-1.19726 -0.4223,0 -3.026493,0.35213 -3.871094,-0.21094 -0.281533,-0.28153 -2.955818,-2.95501 -0.28125,-6.89648 0.211156,0 3.237983,-2.88744 -0.351562,-6.05469 0,0 -0.7044,-1.61844 0.5625,-2.32227 0.488953,-0.27164 2.663986,-2.43191 5.023437,-4.82812 h -6.449219 a 1.2375637,1.2375637 0 0 1 -0.408203,-0.0723 1.2375637,1.2375637 0 0 1 -0.40625,0.0723 h -7.02539 A 1.2375637,1.2375637 0 0 1 17.91211,221.70501 V 211.0332 a 1.2375637,1.2375637 0 0 1 1.238282,-1.23828 h 2.080078 a 1.2375637,1.2375637 0 0 1 1.238281,1.23828 v 7.64258 h 3.283203 v -7.64258 a 1.2375637,1.2375637 0 0 1 1.238281,-1.23828 h 7.248047 a 1.2375637,1.2375637 0 0 1 0.34961,0.0527 1.2375637,1.2375637 0 0 1 0.349609,-0.0527 h 2.095703 a 1.2375637,1.2375637 0 0 1 1.177735,0.86133 l 1.685546,5.27344 1.685547,-5.27344 a 1.2375637,1.2375637 0 0 1 1.179688,-0.86133 h 2.113281 a 1.2375637,1.2375637 0 0 1 0.275391,0.0332 1.2375637,1.2375637 0 0 1 0.277343,-0.0332 h 7.248047 a 1.2375637,1.2375637 0 0 1 0.892578,0.38281 1.2375637,1.2375637 0 0 1 0.894532,-0.38281 h 2.080078 a 1.2375637,1.2375637 0 0 1 1.238281,1.23828 v 2.49805 c 5.34133,2.21469 24.056641,10.29883 24.056641,10.29883 0,0 8.163056,4.01194 14.990234,-0.0703 6.827194,-4.08224 18.582034,-11.47266 18.582034,-11.47266 0,0 1.54752,-1.47755 -1.05664,-4.36328 -1.6892,-0.28154 -8.19922,-4.39844 -8.19922,-4.39844 0,0 -1.37258,-0.17595 -1.83008,0 -0.45749,0.17595 -8.09375,6.01758 -8.09375,6.01758 0,0 -4.398999,3.80039 -5.771485,-1.61914 -0.351909,-0.10551 -2.005859,-1.33789 -2.005859,-1.33789 0,0 -0.880648,-1.19642 -3.027344,-0.0703 0,0 -2.778841,3.20277 -5.171875,-0.3164 -0.316729,-0.66865 -1.05664,-2.91992 -1.05664,-2.91992 0,0 -0.632743,-1.61935 -2.638672,-1.40821 -2.00593,0.21116 -6.791552,1.61938 -8.199219,-2.49804 -0.316726,0 -0.950406,-0.89064 -2.984375,-0.81641 z m -30.814453,15.36524 a 1.2375637,1.2375637 0 0 1 -0.322266,0.0449 h -4.027343 v 0.30859 h 3.771484 a 1.2375637,1.2375637 0 0 1 0.779297,0.27734 z m 0.660156,2.06835 v 1.01172 a 1.2375637,1.2375637 0 0 1 -1.238281,1.23828 h -3.771484 v 0.54688 h 4.074218 a 1.2375637,1.2375637 0 0 1 1.238282,1.23828 v 0.80273 c 0.316071,-0.32571 0.618889,-0.6401 0.933593,-0.96679 z m 2.712891,51.70313 a 1.4173229,1.4173229 0 0 1 1.416015,1.41602 1.4173229,1.4173229 0 0 1 -1.416015,1.41796 1.4173229,1.4173229 0 0 1 -1.417969,-1.41796 1.4173229,1.4173229 0 0 1 1.417969,-1.41602 z"
   id="path935-6"
   inkscape:connector-curvature="0" /><path
   style="fill:#cc0000;fill-opacity:1;stroke:#ff4000;stroke-width:0.42562541;stroke-linecap:butt;stroke-linejoin:miter;stroke-miterlimit:4;stroke-dasharray:none;stroke-opacity:1"
   d="m 116.92188,112.73633 c -3.45007,0.0312 -6.03792,0.2071 -7.77149,0.36914 h 1.24805 a 1.271409,1.271409 0 0 1 1.22851,0.94141 l 1.16407,4.33007 1.11328,-4.31836 a 1.271409,1.271409 0 0 1 1.23047,-0.95312 h 2.06445 a 1.271409,1.271409 0 0 1 0.33594,0.0469 1.271409,1.271409 0 0 1 0.33984,-0.0469 h 6.81641 c -1.73255,-0.16203 -4.31948,-0.33793 -7.76953,-0.36914 z m 8.68554,0.46679 a 1.271409,1.271409 0 0 1 0.41016,0.27149 1.271409,1.271409 0 0 1 0.26367,-0.20117 c -0.16424,-0.0202 -0.4599,-0.0466 -0.67383,-0.0703 z m -18.2207,0.0898 c -0.4331,0.0548 -0.66602,0.0918 -0.66602,0.0918 -0.79094,0.14053 -1.52936,0.29435 -2.26172,0.44921 a 1.271409,1.271409 0 0 1 0.0859,0.23829 l 1.08008,4.36523 1.19531,-4.39453 a 1.271409,1.271409 0 0 1 0.56641,-0.75 z m 22.82031,0.71875 a 1.271409,1.271409 0 0 1 0.0547,0.36523 v 7.60938 h 3.43945 v -7.10156 c -1.08175,-0.30523 -2.24832,-0.59643 -3.49414,-0.87305 z m 8.11719,2.41797 v 5.55664 h 3.67383 a 1.271409,1.271409 0 0 1 1.27148,1.27148 v 1.79102 a 1.271409,1.271409 0 0 1 -1.27148,1.27148 h -7.02539 a 1.271409,1.271409 0 0 1 -0.51954,-0.11328 1.271409,1.271409 0 0 1 -0.51757,0.11328 h -7.02539 a 1.271409,1.271409 0 0 1 -0.8711,-0.34765 1.271409,1.271409 0 0 1 -0.86914,0.34765 H 117.875 a 1.271409,1.271409 0 0 1 -1.27148,-1.27148 v -3.54688 l -1.04102,3.87696 a 1.271409,1.271409 0 0 1 -1.22852,0.9414 h -2.9746 a 1.271409,1.271409 0 0 1 -1.23047,-0.94922 l -0.94532,-3.61328 -0.98242,3.62305 a 1.271409,1.271409 0 0 1 -1.22656,0.93945 h -2.92773 a 1.271409,1.271409 0 0 1 -1.23047,-0.95117 l -0.80274,-3.07422 c -0.0522,0.80771 -0.12847,1.59843 -0.45312,2.25977 a 1.271409,1.271409 0 0 1 -0.004,0.008 c -0.54925,1.0985 -1.744763,1.59182 -3.007812,1.7207 a 1.271409,1.271409 0 0 1 -0.05078,0.004 l -0.511719,0.0312 a 1.271409,1.271409 0 0 1 -0.07813,0.002 c -0.133727,0 -0.266642,0.003 -0.396484,0.0117 a 1.271409,1.271409 0 0 1 -0.0039,0.002 c -0.189142,0.0118 -0.386816,0.0195 -0.591796,0.0195 h -0.496094 c -1.319056,0 -2.448084,-0.13593 -3.419922,-0.46875 a 1.271409,1.271409 0 0 1 -0.01953,-0.008 c -0.722306,-0.26083 -1.298168,-0.87101 -1.595703,-1.54883 -0.297536,-0.67779 -0.396485,-1.42483 -0.396485,-2.27148 v -0.0957 c 0,-0.0706 0.0033,-0.15008 0.01563,-0.23633 v -0.084 a 1.271409,1.271409 0 0 1 1.136719,-1.26367 c -0.295009,-0.30934 -0.665665,-0.56604 -0.806641,-0.95117 -0.110549,-0.30201 -0.185147,-0.6189 -0.234375,-0.95117 -2.563766,1.41811 -3.752489,2.54926 -3.888671,2.6582 -6.62159,5.43917 -6.800782,9.75391 -6.800782,9.75391 -1.064185,5.20267 -0.117187,15.72656 -0.117187,15.72656 1.773638,13.77528 4.494039,17.55734 5.380859,19.44922 0.886875,1.89188 -0.08594,4.66211 -0.08594,4.66211 -6.019929,7.39949 -0.585938,10.78516 -0.585938,10.78516 l -0.125,2.59179 c 0,0 -0.294703,2.63328 2.589844,4.26367 2.884558,1.63041 12.876947,0.41797 12.876947,0.41797 l 0.084,2.08985 -1.21288,2.67773 -0.125,2.38086 c 0.877903,0.75248 0.710933,2.42578 0.710933,2.42578 l 0.835937,0.084 0.5,-0.96289 0.043,2.04882 c 1.75581,1.6722 3.97225,1.04613 4.09765,0.87891 0.0418,-1.37957 1.16993,-2.5918 1.16993,-2.5918 0.71068,0.37625 -0.45899,3.59375 -0.45899,3.59375 2.92636,2.09025 5.09961,0.83594 5.09961,0.83594 0.25082,-1.12874 0.50102,-2.25605 0.75195,-3.38476 0.37506,-0.67868 0.54297,0.16796 0.54297,0.16796 0.18774,0.98856 -0.25076,4.2195 -0.20898,4.38672 1.08692,1.33777 3.88979,0.54647 4.14062,0.67188 0.25084,0.12541 0,-4.97656 0,-4.97656 0.45986,-1.04521 0.60742,-1.00391 0.60743,-1.00391 0,0 0.14366,-0.0413 0.60351,1.00391 0,0 -0.25083,5.10197 0,4.97656 0.25084,-0.12543 3.05371,0.66589 4.14063,-0.67188 0.0418,-0.16722 -0.20223,-4.18872 -0.20899,-4.38672 0,0 -5e-4,-0.83686 0.54297,-0.16796 l 0.75195,3.38476 c 0,0 2.17325,1.25431 5.09961,-0.83594 0,0 -1.16966,-3.2175 -0.45898,-3.59375 0,0 1.12814,1.21223 1.16992,2.5918 0.12541,0.16722 2.34186,0.79329 4.09766,-0.87891 l 0.043,-2.04882 0.5,0.96289 0.83594,-0.084 c 0,0 -0.16696,-1.6733 0.71094,-2.42578 l -0.125,-2.38086 -1.21289,-2.67773 0.084,-2.08985 c 0,0 9.99044,1.21244 12.875,-0.41797 2.88455,-1.63039 2.5918,-4.26367 2.5918,-4.26367 l -0.125,-2.59179 c 0,0 5.43399,-3.38567 -0.58594,-10.78516 0,0 -0.97278,-2.77023 -0.0859,-4.66211 0.88682,-1.89188 3.60723,-5.67394 5.38086,-19.44922 0,0 0.94699,-10.52389 -0.11719,-15.72656 0,0 -0.17919,-4.31474 -6.80078,-9.75391 -0.19835,-0.15866 -2.50782,-2.4463 -8.30469,-4.70312 z m -42.271486,0.75586 c -0.06726,0 -0.131632,0.004 -0.193359,0.01 a 1.271409,1.271409 0 0 1 -0.04687,0.004 c -0.06979,0.004 -0.143153,0.018 -0.216797,0.0332 v 0.0723 c 0,0.0941 -8.06e-4,0.10821 -0.002,0.14062 0.04149,0.004 0.09856,0.0142 0.185547,0.0293 0.132153,0 0.280306,0.0115 0.453125,0.0547 l -0.308594,-0.0391 h 0.160156 a 1.271409,1.271409 0 0 1 0.09766,0.004 c 0.119402,0.009 0.238266,0.0177 0.357421,0.0273 h 0.345704 a 1.271409,1.271409 0 0 1 0.03906,0 c 0.165599,0.005 0.291719,0.0637 0.453125,0.0742 a 1.271409,1.271409 0 0 1 -0.0039,-0.0976 c 0,-0.15934 -0.01743,-0.20558 -0.03125,-0.26758 -0.09265,-0.02 -0.206905,-0.0449 -0.410156,-0.0449 h -0.558559 z m 29.585936,0.0488 a 1.271409,1.271409 0 0 1 -0.51562,0.11132 h -3.99219 v 0.24024 h 3.73633 a 1.271409,1.271409 0 0 1 0.77148,0.26172 z m -24.56836,1.4414 a 1.271409,1.271409 0 0 1 -0.23047,0.0703 c 0.11235,0.0992 0.22841,0.17478 0.32422,0.28907 z m 24.56836,2.67774 a 1.271409,1.271409 0 0 1 -0.77148,0.26367 h -3.73633 v 0.48047 h 4.03906 a 1.271409,1.271409 0 0 1 0.46875,0.0898 z m -30.154295,0.26953 a 1.271409,1.271409 0 0 1 0,0.0176 c 0,0.24693 0.04174,0.37948 0.07422,0.53907 a 1.271409,1.271409 0 0 0 0.002,0 c 0.237172,0.01 0.475231,0.0137 0.714844,0.0137 h 0.769531 c 0.250876,0 0.419774,-0.0253 0.527344,-0.0469 0.0032,-0.0436 0.0078,-0.0679 0.0078,-0.21679 0,-0.0674 -0.0031,-0.0425 -0.0078,-0.0898 -0.19328,-0.0416 -0.368597,-0.0894 -0.710938,-0.0957 h -0.296875 c -0.108761,0 -0.22244,-0.008 -0.335937,-0.0156 h -0.175782 a 1.271409,1.271409 0 0 1 -0.24414,-0.0234 l -0.160156,-0.0312 0.160156,0.0195 c -0.12788,-0.008 -0.200758,-0.0593 -0.324219,-0.0703 z m 3.128906,42.61133 c 0.439822,-0.0113 0.89714,-0.0109 1.335936,0.0117 0.585073,0.0292 1.136073,0.095 1.566403,0.22071 3.67912,1.07597 -0.11545,3.3e-4 9.75782,6.08984 -2.18749,2.30572 -16.378387,10.1105 -18.625002,2.54297 -2.246603,-7.56753 3.488281,-8.68945 3.488281,-8.68945 0,0 1.157077,-0.14035 2.476562,-0.17383 z m 36.613279,0 c 1.3195,0.0334 2.47657,0.17382 2.47656,0.17382 0,0 5.73489,1.12388 3.48829,8.69141 -2.24661,7.56753 -16.4375,-0.23725 -18.625,-2.54297 9.87327,-6.08951 6.07869,-5.01387 9.75781,-6.08984 0.43033,-0.12585 0.98136,-0.19156 1.5664,-0.22071 0.4388,-0.0219 0.89612,-0.0226 1.33594,-0.0117 z m -18.45312,9.54882 5.43945,10.70118 c 0,2e-5 0.76735,3.66596 -4.02148,3.01562 0,0 -0.82676,-1.18164 -1.41797,-1.18164 -0.59121,0 -1.41797,1.18164 -1.41797,1.18164 -4.78883,0.65034 -4.02149,-3.01562 -4.02149,-3.01562 z"
   id="path906-7"
   inkscape:connector-curvature="0" /><path
   style="fill:#cc0000;fill-opacity:1;stroke:#ff4000;stroke-width:0.42562541;stroke-linecap:butt;stroke-linejoin:miter;stroke-miterlimit:4;stroke-dasharray:none;stroke-opacity:1"
   d="m 119.64844,215.66602 c 0,0 -0.041,-0.0517 -0.0957,0.16015 -0.17337,0.67157 -0.48652,3.98585 -0.082,19.94141 0,0 2.42563,2.24727 4.84961,5.61719 0.47296,0.17737 0.47131,1.47746 7.625,1.5957 0.2956,0.29562 16.25982,0.0589 27.19727,20.81055 0.0591,0.59121 -0.0606,2.71875 -0.0606,2.71875 0,0 -1.59577,3.07603 -0.0586,5.5 l -0.17774,1.24023 c 0,0 -0.59022,1.35974 -2.95508,1.53711 0,0 -1.53694,6.3e-4 -1.77343,7.1543 0,0 -7.03548,-0.76783 -6.5625,0.35547 0,0 -0.9454,10.52229 -5.97071,3.42773 l -2.30664,-0.82813 c 0,0 -4.61138,5.14479 -5.26172,1.83399 -0.0591,-0.76857 0.0586,-3.48828 0.0586,-3.48828 0,0 -1.41953,-0.65092 -7.1543,-0.5918 0.0591,-0.2956 -2.06883,0.76962 -1.35937,-2.30469 0,0 5.08421,-5.85335 -2.60157,-6.08984 0,0 -1.83232,-3.90336 3.01563,-5.32227 0.23649,-0.82771 0.11914,-3.90039 0.11914,-3.90039 0,0 -1.00607,-1.42023 -1.41992,-0.94726 -0.41384,0.47297 4.01973,-5.02444 4.43359,-6.44336 0.41384,-1.41891 -0.0586,-4.55274 -0.0586,-4.55274 0,0 -0.76827,-2.01019 -2.66016,-0.65039 -1.89189,1.35978 -6.1493,4.31594 -7.80469,7.21289 l 0.11914,29.85547 c 0,0 -0.17754,5.02531 3.96094,10.28711 0.29561,0.35472 3.78392,2.83955 12.23828,5.5 0.17736,0.11825 7.33019,2.01007 10.81836,-0.65039 l 26.19141,-21.46094 c 0,0 1.06445,-0.9458 1.06445,-4.61132 0.0591,-0.88682 0,-6.20899 0,-6.20899 l -12.65234,-30.44726 c 0,0 -1.06384,-3.84196 -4.19727,-3.60547 -3.13343,0.23649 -3.72461,-3.3711 -3.72461,-3.3711 0,0 -0.29567,-2.06962 -2.83789,-2.36523 -2.54222,-0.29561 -2.54229,0.47281 -2.83789,0.23633 -0.29561,-0.23649 -4.49293,-0.64949 -4.84765,-0.53125 -0.35473,0.11825 -1.41989,-3.8426 -2.95703,-4.84766 -1.53717,-1.00506 -6.73829,0.11719 -6.73829,0.11719 l -3.01562,-2.36328 c 0,0 -3.19355,-8.69183 -9.51953,-9.51953 z m 23.65234,72.5332 c 1.1542,0 2.23036,0.12988 3.22266,0.4082 0.70418,0.19752 1.33476,0.70566 1.68359,1.34766 0.34883,0.642 0.4668,1.37026 0.4668,2.17578 0,0.75997 -0.11985,1.47002 -0.40039,2.10742 -0.0563,0.1301 -0.19043,0.18664 -0.26758,0.29883 0.0615,0.0677 0.152,0.093 0.20703,0.16992 0.47862,0.65587 0.62109,1.44168 0.62109,2.30469 0,0.8963 -0.16769,1.74161 -0.52929,2.49414 -0.45666,0.96245 -1.46477,1.52132 -2.54883,1.69531 a 1.149432,1.149432 0 0 1 -0.0352,0.006 c -0.35808,0.0462 -0.72513,0.0735 -1.09961,0.0859 l -0.0371,0.002 c -0.35027,0.0212 -0.70308,0.0332 -1.05859,0.0332 -1.27169,1e-5 -2.40438,-0.17698 -3.39258,-0.58007 a 1.149432,1.149432 0 0 1 -0.006,-0.002 c -0.66383,-0.27437 -1.20422,-0.82832 -1.5039,-1.47461 -0.29969,-0.64628 -0.40625,-1.37103 -0.40625,-2.17968 v -0.28907 c 0,-0.13558 0.005,-0.27557 0.0195,-0.41796 a 1.149432,1.149432 0 0 1 1.14453,-1.03321 h 1.91992 a 1.149432,1.149432 0 0 1 0.29297,0.0371 v -1.38281 a 1.149432,1.149432 0 0 1 -0.14844,0.01 h -1.90429 a 1.149432,1.149432 0 0 1 -1.14844,-1.14843 c 0,-1.64227 0.20523,-2.97915 1.28711,-3.79492 0.92415,-0.70716 2.1113,-0.87305 3.62109,-0.87305 z m 1.05078,3.76172 c 0.0302,0.0496 -0.0142,0.0183 0.0176,0.0449 8e-5,-8e-5 -0.005,-0.0266 -0.004,-0.0254 a 1.149432,1.149432 0 0 1 -0.0137,-0.0195 z m -1.75781,0.13476 a 1.149432,1.149432 0 0 1 -0.0215,0.0215 c 0.0361,-0.0343 -0.001,0.0125 0.0176,-0.01 0.0194,-0.0168 -0.0239,0.0161 0.004,-0.0117 z m 0.85156,0.0156 c -0.36527,0 -0.6186,0.0267 -0.79101,0.0547 -0.0223,0.12955 -0.0398,0.33356 -0.0488,0.58398 a 1.149432,1.149432 0 0 1 0.13672,-0.008 h 0.28711 c 0.0565,0 0.11185,-0.004 0.16211,-0.01 a 1.149432,1.149432 0 0 1 0.12695,-0.006 h 0.27148 0.28711 c 0.47551,0 0.52338,-0.0431 0.5,0.004 0.0146,-0.10863 0.0332,-0.20131 0.0332,-0.4082 0,-0.1368 -0.0106,-0.12387 -0.0234,-0.17774 a 1.149432,1.149432 0 0 1 -0.12695,-0.01 c -0.0294,-0.004 -0.0548,-0.008 -0.0781,-0.008 a 1.149432,1.149432 0 0 1 -0.14258,-0.008 c -0.0408,-0.005 -0.0739,-0.008 -0.0976,-0.008 h -0.25586 z m -0.99219,4.42773 c 0.008,0.41714 0.0553,0.65245 0.082,0.78321 0.093,0.0241 0.2829,0.0762 0.60742,0.0762 h 0.43164 c 0.52679,-10e-6 0.77815,-0.065 0.95117,-0.10938 0.0185,-0.0926 0.043,-0.16882 0.043,-0.39062 0,-0.15372 -0.0155,-0.1932 -0.0273,-0.27149 -0.0557,-0.007 -0.14339,-0.0508 -0.55079,-0.0508 h -1.24804 a 1.149432,1.149432 0 0 1 -0.28907,-0.0371 z"
   id="path916"
   inkscape:connector-curvature="0" /><path
   style="fill:#cc0000;fill-opacity:1;stroke:#ff4000;stroke-width:0.42562541;stroke-linecap:butt;stroke-linejoin:miter;stroke-miterlimit:4;stroke-dasharray:none;stroke-opacity:1"
   d="m 168.88281,198.55664 c -2.03396,-0.0742 -2.66765,0.81641 -2.98437,0.81641 -1.40767,4.11742 -6.1933,2.70919 -8.19922,2.49804 -2.00593,-0.21115 -2.63867,1.40821 -2.63867,1.40821 0,0 -0.73992,2.25128 -1.05664,2.91992 -2.39303,3.51917 -5.17383,0.31642 -5.17383,0.3164 -2.14669,-1.12611 -3.02539,0.0703 -3.02539,0.0703 0,0 -1.65394,1.23237 -2.00586,1.33789 -1.37247,5.41951 -5.77149,1.61914 -5.77149,1.61914 0,0 -7.63626,-5.84162 -8.09375,-6.01758 -0.45749,-0.17595 -1.83007,0 -1.83007,0 0,0 -6.51002,4.1169 -8.19922,4.39844 -2.60419,2.88571 -1.05664,4.36328 -1.05664,4.36328 0,0 11.75484,7.39043 18.58203,11.47266 6.82718,4.08225 14.99023,0.0703 14.99023,0.0703 0,0 26.04248,-11.26163 26.53516,-11.33203 0.0108,-9.6e-4 0.0205,-0.001 0.0312,-0.002 v -1.46289 a 1.3136951,1.3136951 0 0 1 1.31445,-1.31445 h 3.29688 a 1.3136951,1.3136951 0 0 1 1.23437,0.86523 l 0.70899,1.95118 c 0.65272,0.0715 1.25808,0.15897 1.8164,0.26172 l 0.79492,-2.20899 a 1.3136951,1.3136951 0 0 1 1.23633,-0.86914 h 3.35938 a 1.3136951,1.3136951 0 0 1 0.92578,0.38477 1.3136951,1.3136951 0 0 1 0.92383,-0.38477 h 2.04687 a 1.3136951,1.3136951 0 0 1 0.51367,0.10742 1.3136951,1.3136951 0 0 1 0.51368,-0.10742 h 2.38281 a 1.3136951,1.3136951 0 0 1 1.13476,0.65039 l 1.34375,2.29688 1.33203,-2.29297 a 1.3136951,1.3136951 0 0 1 1.13477,-0.6543 h 2.33594 a 1.3136951,1.3136951 0 0 1 1.11914,2 l -2.74414,4.47852 2.98242,4.8164 a 1.3136951,1.3136951 0 0 1 -1.11719,2.00586 h -2.36914 a 1.3136951,1.3136951 0 0 1 -1.12891,-0.64258 l -1.54882,-2.60742 -1.57227,2.61328 a 1.3136951,1.3136951 0 0 1 -0.33003,0.36726 c 2.44047,2.48183 4.71152,4.74186 5.21485,5.02148 1.2669,0.70383 0.5625,2.32227 0.5625,2.32227 -3.58955,3.16725 -0.56272,6.05469 -0.35157,6.05469 2.67457,3.94147 2.8e-4,6.61494 -0.28125,6.89648 -0.8446,0.56306 -3.44879,0.21094 -3.87109,0.21094 -1.05575,0.35191 -1.26758,1.19728 -1.26758,1.19726 l 0.0703,3.16797 c 2.32267,2.32265 1.68955,4.22231 1.61915,4.57422 -0.4223,0 -0.84375,0.5625 -0.84375,0.5625 0,0 -0.56317,0.63352 -1.83008,-0.0703 -1.47805,-0.98537 -2.46485,-1.26758 -2.46485,-1.26758 0,0 -2.60316,0.0705 -2.95507,-0.0703 -2.39304,0.56307 -1.83008,3.51953 -1.83008,3.51953 -0.70384,-0.14076 -1.90039,0.8457 -1.90039,0.8457 -2.39304,-3.3784 -1.83019,-3.16739 -3.66016,-3.73046 -4.43415,-0.98537 -4.92695,1.26687 -5.70117,1.9707 -1.75959,0.49268 -1.82972,-0.49393 -2.18164,-0.70508 -0.35191,-0.21116 -0.14063,-2.18164 -0.14063,-2.18164 0,0 0.63377,-1.19663 -2.25195,-1.83008 -2.88572,-0.63345 -5.70117,-0.28125 -5.70117,-0.28125 -0.8446,-1.54843 -0.0702,-2.11061 -0.21094,-2.81445 0.28153,-1.05575 1.05596,-5.56064 -0.21094,-5.49024 -1.2669,0.0704 -1.9012,-0.98604 -3.02734,-1.26757 -1.12615,-0.28153 -0.0703,-1.33594 -0.0703,-1.33594 4.6453,-5.63067 -1.61914,-11.9668 -1.61914,-11.9668 -1.97073,4.22301 -3.8008,5.41992 -3.80078,5.41992 -10e-6,0 0.28133,1.12625 0.21093,1.83008 -1.1965,2.39304 -1.19522,3.44947 -1.26562,5.13867 3.30802,12.59862 11.61235,29.98247 12.52734,31.88282 0.91498,1.90035 1.3369,1.97173 2.32227,2.88671 3.23763,1.75959 13.58473,2.04111 14.78125,1.97071 2.39303,0.63345 4.85547,-1.61914 4.85547,-1.61914 20.27041,-19.91849 23.36914,-43.07582 23.36914,-43.42774 0.98536,-17.38469 -0.4942,-21.46655 -0.5293,-21.71289 -2.67457,-3.76551 -4.22274,-4.11629 -8.02344,-6.96679 -3.8007,-2.85054 -7.56601,-2.25372 -7.95312,-2.5 l -10.31055,-0.31641 c 0,0 -13.93696,-0.0352 -14.46484,0.0352 -2.39303,3.13207 -4.53907,1.47852 -4.53907,1.47852 0,0 -1.02101,-0.91577 -1.47851,-1.16211 -1.02936,-0.30793 -1.86303,-0.43815 -2.54102,-0.46289 z m 29.07617,15.40234 v 4.44727 l 1.40625,-2.20898 z m -1.66601,53.73438 a 1.4173229,1.4173229 0 0 1 1.41797,1.41602 1.4173229,1.4173229 0 0 1 -1.41797,1.41796 1.4173229,1.4173229 0 0 1 -1.41602,-1.41796 1.4173229,1.4173229 0 0 1 1.41602,-1.41602 z"
   id="path935"
   inkscape:connector-curvature="0" /><path
   style="fill:#cc0000;fill-opacity:1;stroke:#ff4000;stroke-width:1.09469211px;stroke-linecap:butt;stroke-linejoin:miter;stroke-opacity:1"
   d="M 168.17845,5.9387107 174.758,16.630469 181.33754,5.9387107 Z"
   id="path3078"
   inkscape:connector-curvature="0"
   sodipodi:nodetypes="cccc" /><path
   style="fill:#cc0000;fill-opacity:1;stroke:#ff4000;stroke-width:1.09469223px;stroke-linecap:butt;stroke-linejoin:miter;stroke-opacity:1"
   d="M 52.920035,17.127483 59.499584,6.4357232 66.079133,17.127483 Z"
   id="path3078-8"
   inkscape:connector-curvature="0"
   sodipodi:nodetypes="cccc" /><g
   id="g4196"
   transform="translate(-1.0606602,-3.1819805)"><g
     style="display:inline;fill:#000000;fill-opacity:1;stroke:#bf0000;stroke-width:1.04419601;stroke-miterlimit:4;stroke-dasharray:none;stroke-opacity:1"
     transform="matrix(0.95767462,0,0,0.95767462,-73.798165,366.04373)"
     id="g4037"
     inkscape:export-xdpi="300"
     inkscape:export-ydpi="300"><path
   transform="matrix(0.59730943,0,0,0.63643748,41.766216,-48.787331)"
   sodipodi:nodetypes="cccccccccccccccc"
   inkscape:original-d="m 98.681315,172.56906 c -0.08241,0.045 -0.164761,0.0901 -0.248047,0.13583 -0.05113,0.0966 -0.101947,0.19236 -0.153553,0.28939 0.02001,0.0886 0.0396,0.17673 0.05906,0.26577 0.09889,0.0352 0.196777,0.0705 0.295294,0.1063 0.106947,-0.0319 0.212884,-0.0633 0.318915,-0.0945 0.05144,-0.0396 0.153554,-0.11812 0.153554,-0.11812 0,0 12.761152,-9.51286 19.140952,-14.26861 1.19769,-6.25273 2.39521,-12.50567 3.59242,-18.75812 2.6e-4,-2.7e-4 2.6e-4,-2.7e-4 0,0 -0.36556,-0.31158 -0.72524,-0.61767 -1.08833,-0.92616 -0.63448,0.0297 -1.90382,0.0902 -1.90382,0.0902 0,0 -2.94385,13.14413 -4.41653,19.71725 -5.24976,4.52001 -10.49968,9.0402 -15.749915,13.5607 2.64e-4,-2.6e-4 2.64e-4,-2.4e-4 0,4e-5 z"
   inkscape:path-effect="#path-effect3434-8-2-3-8-9-1"
   inkscape:connector-curvature="0"
   id="path4017"
   d="m 98.640137,172.59161 c -0.04118,0.0225 -0.123531,0.0676 -0.190815,0.13874 -0.06728,0.0711 -0.118095,0.16685 -0.133999,0.25972 -0.0159,0.0929 0.0037,0.18101 0.06295,0.24327 0.05927,0.0623 0.157174,0.0975 0.259988,0.0994 0.102814,0.002 0.208754,-0.0295 0.287467,-0.065 0.07871,-0.0355 0.129627,-0.0747 0.180812,-0.11403 6.380322,-4.7562 12.761182,-9.51282 16.549812,-15.0171 3.78863,-5.50428 4.98614,-11.75722 5.58485,-14.88342 0.59871,-3.12621 0.59871,-3.12621 0.41581,-3.28186 -0.1829,-0.15564 -0.54259,-0.46173 -1.04124,-0.60109 -0.49865,-0.13936 -1.1334,-0.10929 -1.76801,-0.0792 -1.47218,6.57242 -2.94418,13.14406 -6.30522,18.69067 -3.36105,5.54661 -8.61097,10.0668 -11.2361,12.32704 -2.625125,2.26024 -2.625125,2.26024 -2.625125,2.26026 0,2e-5 0,5e-5 -0.04118,0.0226 z"
   style="fill:#bf0000;fill-opacity:1;stroke:#bf0000;stroke-width:1.69357514;stroke-linecap:round;stroke-linejoin:miter;stroke-miterlimit:4;stroke-dasharray:none;stroke-opacity:1" /><path
   sodipodi:nodetypes="cccccccccccccccccc"
   inkscape:original-d="m 127.2506,156.6409 c 1.64907,0.51208 3.29752,1.02419 4.94705,1.53684 1.15148,2.12593 2.30289,4.2516 3.45483,6.37811 0.92851,2.36263 1.8571,4.72512 2.78618,7.08858 0.87953,2.74323 1.75894,5.48565 2.63911,8.22998 2.42259,0.63219 4.84364,1.26427 7.26688,1.89722 1.8212,-0.75486 3.64122,-1.50884 5.46282,-2.26312 0.82149,-1.57253 1.64286,-3.14407 2.46471,-4.71577 0.80381,-1.98553 1.60783,-3.97071 2.41215,-5.95568 -0.14583,-11.92514 -0.29139,-23.84992 -0.43669,-35.7745 0.0318,-0.59015 0.0633,-1.18004 0.0945,-1.76967 -1.5521,1.1525 -3.10408,2.30498 -4.65707,3.45829 -1.08027,0.45023 -2.16012,0.90045 -3.24081,1.35117 -1.57432,-0.21538 -3.14824,-0.4304 -4.72307,-0.64525 -1.43571,-0.95876 -2.8713,-1.917 -4.30735,-2.87511 -1.31494,-0.47135 -2.63005,-0.9424 -3.94558,-1.41324 -1.86803,0.28007 -3.73581,0.56033 -5.60455,0.84096 -1.36958,0.69635 -2.73898,1.39274 -4.10887,2.08951"
   inkscape:path-effect="#path-effect3539-0-6-06-4-8-1-1"
   inkscape:connector-curvature="0"
   id="path4019"
   d="m 127.2506,156.6409 c 1.64901,0.51228 3.29746,1.02438 4.69802,2.34356 1.40057,1.31918 2.55198,3.44485 3.59223,5.68941 1.04025,2.24457 1.96883,4.60706 2.87315,7.1604 0.90432,2.55335 1.78373,5.29577 3.43501,6.98419 1.65128,1.68842 4.07233,2.3205 6.19465,2.25957 2.12232,-0.0609 3.94234,-0.81493 5.26398,-1.97841 1.32163,-1.16348 2.143,-2.73502 2.95583,-4.51365 0.81283,-1.77863 1.61686,-3.76381 1.94608,-10.71893 0.32921,-6.95512 0.18365,-18.8799 0.12663,-25.13727 -0.057,-6.25738 -0.0255,-6.84727 -0.78582,-6.5658 -0.76029,0.28147 -2.31226,1.43395 -3.62888,2.23576 -1.31662,0.80182 -2.39647,1.25203 -3.72403,1.36978 -1.32755,0.11776 -2.90147,-0.0973 -4.40682,-0.68407 -1.50535,-0.5868 -2.94094,-1.54504 -4.31639,-2.25976 -1.37545,-0.71472 -2.69056,-1.18577 -4.28227,-1.2812 -1.59171,-0.0954 -3.45949,0.18482 -5.07864,0.67325 -1.61915,0.48843 -2.98855,1.18482 -4.35849,1.88149"
   style="fill:none;fill-opacity:1;stroke:#bf0000;stroke-width:2.04011488;stroke-linecap:round;stroke-linejoin:miter;stroke-miterlimit:4;stroke-dasharray:none;stroke-opacity:1"
   transform="matrix(-0.72584941,0,0,0.81206496,202.78889,-89.629126)" /><path
   transform="matrix(-1.5397983,0,0,0.9750965,303.35554,-107.68762)"
   sodipodi:nodetypes="cssccccscscccac"
   inkscape:original-d="m 122.88951,141.67541 c 0.12821,0.2101 0.25616,0.42047 0.38385,0.6311 0.21288,0.0571 0.4255,0.11447 0.63786,0.1721 0.22666,-0.0396 0.45305,-0.079 0.67918,-0.11816 0.24437,-0.27587 0.48849,-0.55149 0.73233,-0.82683 0.27586,-0.39398 0.55148,-0.78771 0.82682,-1.18117 0.0917,-0.4631 0.18309,-0.92565 0.27445,-1.38837 0.0583,-0.35643 0.11641,-0.71239 0.17443,-1.06848 -0.22014,0.21173 -0.4401,0.42333 -0.66066,0.63555 -0.13335,0.12127 -0.26673,0.24261 -0.40014,0.36404 -0.23889,0.23038 -0.47795,0.46098 -0.71775,0.69233 -0.32098,0.29466 -0.64075,0.58824 -0.96178,0.88304 -0.30703,0.18886 -0.92131,0.56702 -0.92131,0.56702 0,0 -0.0312,0.42496 -0.0473,0.63783 z"
   inkscape:path-effect="#path-effect3491-4-8-5-2-4-5-8"
   inkscape:connector-curvature="0"
   id="path4021"
   d="m 122.95346,141.78055 c 0.0639,0.10515 0.1919,0.31552 0.3623,0.44945 0.1704,0.13392 0.38302,0.19129 0.60258,0.20023 0.21957,0.009 0.44596,-0.0304 0.68119,-0.18805 0.23522,-0.15761 0.47934,-0.43324 0.73918,-0.7679 0.25983,-0.33467 0.53544,-0.72841 0.71892,-1.15668 0.18347,-0.42828 0.2749,-0.89082 0.34973,-1.30039 0.0748,-0.40958 0.13294,-0.76554 0.052,-0.8377 -0.081,-0.0722 -0.30096,0.13944 -0.47791,0.30619 -0.17696,0.16675 -0.31033,0.28809 -0.49648,0.46399 -0.18616,0.17591 -0.42522,0.4065 -0.70561,0.66951 -0.28039,0.263 -0.60015,0.55659 -0.91417,0.79844 -0.31402,0.24185 -0.62125,0.43093 -0.92835,0.61994 -0.0158,0.21261 -0.0315,0.42494 -0.0394,0.53138 -0.008,0.10645 -0.008,0.10645 0.0561,0.21159 z"
   style="fill:none;fill-opacity:1;stroke:#bf0000;stroke-width:0.85217011;stroke-linecap:butt;stroke-linejoin:round;stroke-miterlimit:4;stroke-dasharray:none;stroke-opacity:1" /><path
   transform="matrix(-0.59730943,0,0,0.63643748,194.42749,-48.668212)"
   sodipodi:nodetypes="cccccccccccccccc"
   inkscape:original-d="m 98.681315,172.56906 c -0.08241,0.045 -0.164761,0.0901 -0.248047,0.13583 -0.05113,0.0966 -0.101947,0.19236 -0.153553,0.28939 0.02001,0.0886 0.0396,0.17673 0.05906,0.26577 0.09889,0.0352 0.196777,0.0705 0.295294,0.1063 0.106947,-0.0319 0.212884,-0.0633 0.318915,-0.0945 0.05144,-0.0396 0.153554,-0.11812 0.153554,-0.11812 0,0 12.761152,-9.51286 19.140952,-14.26861 1.19769,-6.25273 2.39521,-12.50567 3.59242,-18.75812 2.6e-4,-2.7e-4 2.6e-4,-2.7e-4 0,0 -0.36556,-0.31158 -0.72524,-0.61767 -1.08833,-0.92616 -0.63448,0.0297 -1.90382,0.0902 -1.90382,0.0902 0,0 -2.94385,13.14413 -4.41653,19.71725 -5.24976,4.52001 -10.49968,9.0402 -15.749915,13.5607 2.64e-4,-2.6e-4 2.64e-4,-2.4e-4 0,4e-5 z"
   inkscape:path-effect="#path-effect3434-8-2-5-8-1-1"
   inkscape:connector-curvature="0"
   id="path4023"
   d="m 98.640137,172.59161 c -0.04118,0.0225 -0.123531,0.0676 -0.190815,0.13874 -0.06728,0.0711 -0.118095,0.16685 -0.133999,0.25972 -0.0159,0.0929 0.0037,0.18101 0.06295,0.24327 0.05927,0.0623 0.157174,0.0975 0.259988,0.0994 0.102814,0.002 0.208754,-0.0295 0.287467,-0.065 0.07871,-0.0355 0.129627,-0.0747 0.180812,-0.11403 6.380322,-4.7562 12.761182,-9.51282 16.549812,-15.0171 3.78863,-5.50428 4.98614,-11.75722 5.58485,-14.88342 0.59871,-3.12621 0.59871,-3.12621 0.41581,-3.28186 -0.1829,-0.15564 -0.54259,-0.46173 -1.04124,-0.60109 -0.49865,-0.13936 -1.1334,-0.10929 -1.76801,-0.0792 -1.47218,6.57242 -2.94418,13.14406 -6.30522,18.69067 -3.36105,5.54661 -8.61097,10.0668 -11.2361,12.32704 -2.625125,2.26024 -2.625125,2.26024 -2.625125,2.26026 0,2e-5 0,5e-5 -0.04118,0.0226 z"
   style="fill:#bf0000;fill-opacity:1;stroke:#bf0000;stroke-width:1.69357514;stroke-linecap:round;stroke-linejoin:miter;stroke-miterlimit:4;stroke-dasharray:none;stroke-opacity:1" /><path
   sodipodi:nodetypes="cccccccccccccccccc"
   inkscape:original-d="m 127.2506,156.6409 c 1.64907,0.51208 3.29752,1.02419 4.94705,1.53684 1.15148,2.12593 2.30289,4.2516 3.45483,6.37811 0.92851,2.36263 1.8571,4.72512 2.78618,7.08858 0.87953,2.74323 1.75894,5.48565 2.63911,8.22998 2.42259,0.63219 4.84364,1.26427 7.26688,1.89722 1.8212,-0.75486 3.64122,-1.50884 5.46282,-2.26312 0.82149,-1.57253 1.64286,-3.14407 2.46471,-4.71577 0.80381,-1.98553 1.60783,-3.97071 2.41215,-5.95568 -0.14583,-11.92514 -0.29139,-23.84992 -0.43669,-35.7745 0.0318,-0.59015 0.0633,-1.18004 0.0945,-1.76967 -1.5521,1.1525 -3.10408,2.30498 -4.65707,3.45829 -1.08027,0.45023 -2.16012,0.90045 -3.24081,1.35117 -1.57432,-0.21538 -3.14824,-0.4304 -4.72307,-0.64525 -1.43571,-0.95876 -2.8713,-1.917 -4.30735,-2.87511 -1.31494,-0.47135 -2.63005,-0.9424 -3.94558,-1.41324 -1.86803,0.28007 -3.73581,0.56033 -5.60455,0.84096 -1.36958,0.69635 -2.73898,1.39274 -4.10887,2.08951"
   inkscape:path-effect="#path-effect3539-0-6-06-6-7-7-2"
   inkscape:connector-curvature="0"
   id="path4025"
   d="m 127.2506,156.6409 c 1.64901,0.51228 3.29746,1.02438 4.69802,2.34356 1.40057,1.31918 2.55198,3.44485 3.59223,5.68941 1.04025,2.24457 1.96883,4.60706 2.87315,7.1604 0.90432,2.55335 1.78373,5.29577 3.43501,6.98419 1.65128,1.68842 4.07233,2.3205 6.19465,2.25957 2.12232,-0.0609 3.94234,-0.81493 5.26398,-1.97841 1.32163,-1.16348 2.143,-2.73502 2.95583,-4.51365 0.81283,-1.77863 1.61686,-3.76381 1.94608,-10.71893 0.32921,-6.95512 0.18365,-18.8799 0.12663,-25.13727 -0.057,-6.25738 -0.0255,-6.84727 -0.78582,-6.5658 -0.76029,0.28147 -2.31226,1.43395 -3.62888,2.23576 -1.31662,0.80182 -2.39647,1.25203 -3.72403,1.36978 -1.32755,0.11776 -2.90147,-0.0973 -4.40682,-0.68407 -1.50535,-0.5868 -2.94094,-1.54504 -4.31639,-2.25976 -1.37545,-0.71472 -2.69056,-1.18577 -4.28227,-1.2812 -1.59171,-0.0954 -3.45949,0.18482 -5.07864,0.67325 -1.61915,0.48843 -2.98855,1.18482 -4.35849,1.88149"
   style="fill:none;fill-opacity:1;stroke:#bf0000;stroke-width:2.04011488;stroke-linecap:round;stroke-linejoin:miter;stroke-miterlimit:4;stroke-dasharray:none;stroke-opacity:1"
   transform="matrix(0.72584941,0,0,0.81206496,33.40482,-89.510007)" /><path
   transform="matrix(1.5397983,0,0,0.9750965,-67.16183,-107.5685)"
   sodipodi:nodetypes="cssccccscscccac"
   inkscape:original-d="m 122.88951,141.67541 c 0.12821,0.2101 0.25616,0.42047 0.38385,0.6311 0.21288,0.0571 0.4255,0.11447 0.63786,0.1721 0.22666,-0.0396 0.45305,-0.079 0.67918,-0.11816 0.24437,-0.27587 0.48849,-0.55149 0.73233,-0.82683 0.27586,-0.39398 0.55148,-0.78771 0.82682,-1.18117 0.0917,-0.4631 0.18309,-0.92565 0.27445,-1.38837 0.0583,-0.35643 0.11641,-0.71239 0.17443,-1.06848 -0.22014,0.21173 -0.4401,0.42333 -0.66066,0.63555 -0.13335,0.12127 -0.26673,0.24261 -0.40014,0.36404 -0.23889,0.23038 -0.47795,0.46098 -0.71775,0.69233 -0.32098,0.29466 -0.64075,0.58824 -0.96178,0.88304 -0.30703,0.18886 -0.92131,0.56702 -0.92131,0.56702 0,0 -0.0312,0.42496 -0.0473,0.63783 z"
   inkscape:path-effect="#path-effect3491-4-8-5-5-4-7-8"
   inkscape:connector-curvature="0"
   id="path4027"
   d="m 122.95346,141.78055 c 0.0639,0.10515 0.1919,0.31552 0.3623,0.44945 0.1704,0.13392 0.38302,0.19129 0.60258,0.20023 0.21957,0.009 0.44596,-0.0304 0.68119,-0.18805 0.23522,-0.15761 0.47934,-0.43324 0.73918,-0.7679 0.25983,-0.33467 0.53544,-0.72841 0.71892,-1.15668 0.18347,-0.42828 0.2749,-0.89082 0.34973,-1.30039 0.0748,-0.40958 0.13294,-0.76554 0.052,-0.8377 -0.081,-0.0722 -0.30096,0.13944 -0.47791,0.30619 -0.17696,0.16675 -0.31033,0.28809 -0.49648,0.46399 -0.18616,0.17591 -0.42522,0.4065 -0.70561,0.66951 -0.28039,0.263 -0.60015,0.55659 -0.91417,0.79844 -0.31402,0.24185 -0.62125,0.43093 -0.92835,0.61994 -0.0158,0.21261 -0.0315,0.42494 -0.0394,0.53138 -0.008,0.10645 -0.008,0.10645 0.0561,0.21159 z"
   style="fill:none;fill-opacity:1;stroke:#bf0000;stroke-width:0.85217011;stroke-linecap:butt;stroke-linejoin:round;stroke-miterlimit:4;stroke-dasharray:none;stroke-opacity:1" /><path
   transform="matrix(0.51784933,0,0,0.66882622,56.467299,-59.136109)"
   sodipodi:nodetypes="cccccccccccccc"
   inkscape:original-d="m 116.64182,152.59548 c 0,0 -0.0194,-1.06131 -0.0299,-1.59199 0.19003,-0.1115 0.3797,-0.22253 0.56903,-0.33355 0.64389,-0.10891 1.28713,-0.21753 1.93021,-0.32594 0.56267,0.10562 1.12393,0.21134 1.68599,0.31758 0.11617,0.0966 0.23149,0.19314 0.34662,0.29023 0.11067,0.57444 0.22065,1.14824 0.33019,1.72264 -0.0604,15.07264 -0.12139,30.1498 -0.18286,45.22702 -0.0747,0.27816 -0.14977,0.55637 -0.2255,0.83521 -0.22264,0.46497 -0.44537,0.92931 -0.66904,1.39481 -0.85506,-0.0253 -1.70875,-0.0504 -2.56412,-0.0752 -0.29777,-0.40414 -0.59552,-0.80764 -0.89368,-1.21107 -0.0916,-0.31765 -0.18348,-0.63502 -0.27562,-0.95214 -0.007,-15.0988 -0.0214,-45.2976 -0.0214,-45.2976 z"
   inkscape:path-effect="#path-effect3463-4-8-3-6-5-0"
   inkscape:connector-curvature="0"
   id="path4029"
   d="m 116.64182,152.59548 c -0.01,-0.53066 -0.0199,-1.0613 0.0701,-1.38235 0.0901,-0.32106 0.27966,-0.4322 0.6963,-0.54206 0.41663,-0.10986 1.05987,-0.21848 1.6627,-0.21979 0.60282,-0.001 1.16408,0.10442 1.50307,0.20585 0.33898,0.10144 0.45429,0.198 0.56709,0.53361 0.1128,0.33561 0.22278,0.90941 0.24735,8.73288 0.0246,7.82347 -0.0364,22.90063 -0.10441,30.57827 -0.068,7.67764 -0.14313,7.95584 -0.29226,8.32772 -0.14914,0.37189 -0.37186,0.83623 -0.91108,1.05652 -0.53921,0.22028 -1.3929,0.19525 -1.96961,-0.0193 -0.57671,-0.2145 -0.87447,-0.618 -1.06936,-0.9786 -0.19489,-0.36061 -0.28677,-0.67798 -0.33624,-8.38598 -0.0495,-7.70801 -0.0566,-22.80761 -0.0637,-37.90681 0,0 8e-5,0 8e-5,0 z"
   style="fill:#bf0000;fill-opacity:1;stroke:#bf0000;stroke-width:1.77428615;stroke-linecap:butt;stroke-linejoin:miter;stroke-miterlimit:4;stroke-dasharray:none;stroke-opacity:1" /><path
   sodipodi:nodetypes="cccc"
   transform="matrix(0.94214886,0,0,1,7.7370472,-115.89081)"
   inkscape:original-d="m 107.00804,134.76739 c 2.18645,-1.08769 4.29885,-2.13842 6.44787,-3.20723 2.61689,-0.0225 5.2343,-0.0448 7.85104,-0.0668 1.96707,1.08267 3.93389,2.1656 5.90044,3.2488"
   inkscape:path-effect="#path-effect3535-5-7-8-2-3-2"
   inkscape:connector-curvature="0"
   id="path4031"
   d="m 107.00804,134.76739 c 2.1865,-1.08759 4.2989,-2.13831 6.68183,-2.6839 2.38293,-0.5456 5.00034,-0.56787 7.29216,-0.0375 2.29182,0.53036 4.25864,1.6133 6.22536,2.69618"
   style="fill:none;fill-opacity:1;stroke:#bf0000;stroke-width:1.61366546;stroke-linecap:butt;stroke-linejoin:miter;stroke-miterlimit:4;stroke-dasharray:none;stroke-opacity:1" /><text
   xml:space="preserve"
   style="font-style:normal;font-variant:normal;font-weight:normal;font-stretch:normal;font-size:16.70713615px;line-height:1.25;font-family:Eurostile-Bold;-inkscape-font-specification:Eurostile-Bold;letter-spacing:0px;word-spacing:0px;fill:#000000;fill-opacity:1;stroke:#bf0000;stroke-width:1.04419601;stroke-miterlimit:4;stroke-dasharray:none;stroke-opacity:1"
   x="85.609093"
   y="-8.3539076"
   id="text4035"><tspan
     sodipodi:role="line"
     id="tspan4033"
     x="85.609093"
     y="6.5161076"
     style="fill:#000000;fill-opacity:1;stroke:#bf0000;stroke-width:1.04419601;stroke-miterlimit:4;stroke-dasharray:none;stroke-opacity:1" /></text>

</g><g
     style="stroke:none"
     inkscape:export-ydpi="300"
     inkscape:export-xdpi="300"
     id="g1140-1-0"
     transform="matrix(0.95767462,0,0,0.95767462,-73.798165,366.04373)"><path
   style="fill:none;fill-opacity:1;stroke:none;stroke-width:1.62189412;stroke-linecap:round;stroke-linejoin:miter;stroke-miterlimit:4;stroke-dasharray:none;stroke-opacity:1"
   d="m 98.640137,172.59161 c -0.04118,0.0225 -0.123531,0.0676 -0.190815,0.13874 -0.06728,0.0711 -0.118095,0.16685 -0.133999,0.25972 -0.0159,0.0929 0.0037,0.18101 0.06295,0.24327 0.05927,0.0623 0.157174,0.0975 0.259988,0.0994 0.102814,0.002 0.208754,-0.0295 0.287467,-0.065 0.07871,-0.0355 0.129627,-0.0747 0.180812,-0.11403 6.380322,-4.7562 12.761182,-9.51282 16.549812,-15.0171 3.78863,-5.50428 4.98614,-11.75722 5.58485,-14.88342 0.59871,-3.12621 0.59871,-3.12621 0.41581,-3.28186 -0.1829,-0.15564 -0.54259,-0.46173 -1.04124,-0.60109 -0.49865,-0.13936 -1.1334,-0.10929 -1.76801,-0.0792 -1.47218,6.57242 -2.94418,13.14406 -6.30522,18.69067 -3.36105,5.54661 -8.61097,10.0668 -11.2361,12.32704 -2.625125,2.26024 -2.625125,2.26024 -2.625125,2.26026 0,2e-5 0,5e-5 -0.04118,0.0226 z"
   id="path3432-9-7-8-7-1"
   inkscape:connector-curvature="0"
   inkscape:path-effect="#path-effect3434-8-2-3-8-9"
   inkscape:original-d="m 98.681315,172.56906 c -0.08241,0.045 -0.164761,0.0901 -0.248047,0.13583 -0.05113,0.0966 -0.101947,0.19236 -0.153553,0.28939 0.02001,0.0886 0.0396,0.17673 0.05906,0.26577 0.09889,0.0352 0.196777,0.0705 0.295294,0.1063 0.106947,-0.0319 0.212884,-0.0633 0.318915,-0.0945 0.05144,-0.0396 0.153554,-0.11812 0.153554,-0.11812 0,0 12.761152,-9.51286 19.140952,-14.26861 1.19769,-6.25273 2.39521,-12.50567 3.59242,-18.75812 2.6e-4,-2.7e-4 2.6e-4,-2.7e-4 0,0 -0.36556,-0.31158 -0.72524,-0.61767 -1.08833,-0.92616 -0.63448,0.0297 -1.90382,0.0902 -1.90382,0.0902 0,0 -2.94385,13.14413 -4.41653,19.71725 -5.24976,4.52001 -10.49968,9.0402 -15.749915,13.5607 2.64e-4,-2.6e-4 2.64e-4,-2.4e-4 0,4e-5 z"
   sodipodi:nodetypes="cccccccccccccccc"
   transform="matrix(0.59730943,0,0,0.63643748,41.766216,-48.787331)" /><path
   transform="matrix(-0.72584941,0,0,0.81206496,202.78889,-89.629126)"
   style="fill:none;stroke:none;stroke-width:3.51677918;stroke-linecap:round;stroke-linejoin:miter;stroke-miterlimit:4;stroke-dasharray:none;stroke-opacity:1"
   d="m 127.2506,156.6409 c 1.64901,0.51228 3.29746,1.02438 4.69802,2.34356 1.40057,1.31918 2.55198,3.44485 3.59223,5.68941 1.04025,2.24457 1.96883,4.60706 2.87315,7.1604 0.90432,2.55335 1.78373,5.29577 3.43501,6.98419 1.65128,1.68842 4.07233,2.3205 6.19465,2.25957 2.12232,-0.0609 3.94234,-0.81493 5.26398,-1.97841 1.32163,-1.16348 2.143,-2.73502 2.95583,-4.51365 0.81283,-1.77863 1.61686,-3.76381 1.94608,-10.71893 0.32921,-6.95512 0.18365,-18.8799 0.12663,-25.13727 -0.057,-6.25738 -0.0255,-6.84727 -0.78582,-6.5658 -0.76029,0.28147 -2.31226,1.43395 -3.62888,2.23576 -1.31662,0.80182 -2.39647,1.25203 -3.72403,1.36978 -1.32755,0.11776 -2.90147,-0.0973 -4.40682,-0.68407 -1.50535,-0.5868 -2.94094,-1.54504 -4.31639,-2.25976 -1.37545,-0.71472 -2.69056,-1.18577 -4.28227,-1.2812 -1.59171,-0.0954 -3.45949,0.18482 -5.07864,0.67325 -1.61915,0.48843 -2.98855,1.18482 -4.35849,1.88149"
   id="path3537-8-0-2-4-7-7"
   inkscape:connector-curvature="0"
   inkscape:path-effect="#path-effect3539-0-6-06-4-8-1"
   inkscape:original-d="m 127.2506,156.6409 c 1.64907,0.51208 3.29752,1.02419 4.94705,1.53684 1.15148,2.12593 2.30289,4.2516 3.45483,6.37811 0.92851,2.36263 1.8571,4.72512 2.78618,7.08858 0.87953,2.74323 1.75894,5.48565 2.63911,8.22998 2.42259,0.63219 4.84364,1.26427 7.26688,1.89722 1.8212,-0.75486 3.64122,-1.50884 5.46282,-2.26312 0.82149,-1.57253 1.64286,-3.14407 2.46471,-4.71577 0.80381,-1.98553 1.60783,-3.97071 2.41215,-5.95568 -0.14583,-11.92514 -0.29139,-23.84992 -0.43669,-35.7745 0.0318,-0.59015 0.0633,-1.18004 0.0945,-1.76967 -1.5521,1.1525 -3.10408,2.30498 -4.65707,3.45829 -1.08027,0.45023 -2.16012,0.90045 -3.24081,1.35117 -1.57432,-0.21538 -3.14824,-0.4304 -4.72307,-0.64525 -1.43571,-0.95876 -2.8713,-1.917 -4.30735,-2.87511 -1.31494,-0.47135 -2.63005,-0.9424 -3.94558,-1.41324 -1.86803,0.28007 -3.73581,0.56033 -5.60455,0.84096 -1.36958,0.69635 -2.73898,1.39274 -4.10887,2.08951"
   sodipodi:nodetypes="cccccccccccccccccc" /><path
   style="fill:#ff4000;fill-opacity:1;stroke:none;stroke-width:0.81610167;stroke-linecap:butt;stroke-linejoin:round;stroke-miterlimit:4;stroke-dasharray:none;stroke-opacity:1"
   d="m 122.95346,141.78055 c 0.0639,0.10515 0.1919,0.31552 0.3623,0.44945 0.1704,0.13392 0.38302,0.19129 0.60258,0.20023 0.21957,0.009 0.44596,-0.0304 0.68119,-0.18805 0.23522,-0.15761 0.47934,-0.43324 0.73918,-0.7679 0.25983,-0.33467 0.53544,-0.72841 0.71892,-1.15668 0.18347,-0.42828 0.2749,-0.89082 0.34973,-1.30039 0.0748,-0.40958 0.13294,-0.76554 0.052,-0.8377 -0.081,-0.0722 -0.30096,0.13944 -0.47791,0.30619 -0.17696,0.16675 -0.31033,0.28809 -0.49648,0.46399 -0.18616,0.17591 -0.42522,0.4065 -0.70561,0.66951 -0.28039,0.263 -0.60015,0.55659 -0.91417,0.79844 -0.31402,0.24185 -0.62125,0.43093 -0.92835,0.61994 -0.0158,0.21261 -0.0315,0.42494 -0.0394,0.53138 -0.008,0.10645 -0.008,0.10645 0.0561,0.21159 z"
   id="path3489-1-6-2-8-0-3"
   inkscape:connector-curvature="0"
   inkscape:path-effect="#path-effect3491-4-8-5-2-4-5"
   inkscape:original-d="m 122.88951,141.67541 c 0.12821,0.2101 0.25616,0.42047 0.38385,0.6311 0.21288,0.0571 0.4255,0.11447 0.63786,0.1721 0.22666,-0.0396 0.45305,-0.079 0.67918,-0.11816 0.24437,-0.27587 0.48849,-0.55149 0.73233,-0.82683 0.27586,-0.39398 0.55148,-0.78771 0.82682,-1.18117 0.0917,-0.4631 0.18309,-0.92565 0.27445,-1.38837 0.0583,-0.35643 0.11641,-0.71239 0.17443,-1.06848 -0.22014,0.21173 -0.4401,0.42333 -0.66066,0.63555 -0.13335,0.12127 -0.26673,0.24261 -0.40014,0.36404 -0.23889,0.23038 -0.47795,0.46098 -0.71775,0.69233 -0.32098,0.29466 -0.64075,0.58824 -0.96178,0.88304 -0.30703,0.18886 -0.92131,0.56702 -0.92131,0.56702 0,0 -0.0312,0.42496 -0.0473,0.63783 z"
   sodipodi:nodetypes="cssccccscscccac"
   transform="matrix(-1.5397983,0,0,0.9750965,303.35554,-107.68762)" /><path
   style="fill:none;fill-opacity:1;stroke:none;stroke-width:1.62189412;stroke-linecap:round;stroke-linejoin:miter;stroke-miterlimit:4;stroke-dasharray:none;stroke-opacity:1"
   d="m 98.640137,172.59161 c -0.04118,0.0225 -0.123531,0.0676 -0.190815,0.13874 -0.06728,0.0711 -0.118095,0.16685 -0.133999,0.25972 -0.0159,0.0929 0.0037,0.18101 0.06295,0.24327 0.05927,0.0623 0.157174,0.0975 0.259988,0.0994 0.102814,0.002 0.208754,-0.0295 0.287467,-0.065 0.07871,-0.0355 0.129627,-0.0747 0.180812,-0.11403 6.380322,-4.7562 12.761182,-9.51282 16.549812,-15.0171 3.78863,-5.50428 4.98614,-11.75722 5.58485,-14.88342 0.59871,-3.12621 0.59871,-3.12621 0.41581,-3.28186 -0.1829,-0.15564 -0.54259,-0.46173 -1.04124,-0.60109 -0.49865,-0.13936 -1.1334,-0.10929 -1.76801,-0.0792 -1.47218,6.57242 -2.94418,13.14406 -6.30522,18.69067 -3.36105,5.54661 -8.61097,10.0668 -11.2361,12.32704 -2.625125,2.26024 -2.625125,2.26024 -2.625125,2.26026 0,2e-5 0,5e-5 -0.04118,0.0226 z"
   id="path3432-9-7-4-2-3"
   inkscape:connector-curvature="0"
   inkscape:path-effect="#path-effect3434-8-2-5-8-1"
   inkscape:original-d="m 98.681315,172.56906 c -0.08241,0.045 -0.164761,0.0901 -0.248047,0.13583 -0.05113,0.0966 -0.101947,0.19236 -0.153553,0.28939 0.02001,0.0886 0.0396,0.17673 0.05906,0.26577 0.09889,0.0352 0.196777,0.0705 0.295294,0.1063 0.106947,-0.0319 0.212884,-0.0633 0.318915,-0.0945 0.05144,-0.0396 0.153554,-0.11812 0.153554,-0.11812 0,0 12.761152,-9.51286 19.140952,-14.26861 1.19769,-6.25273 2.39521,-12.50567 3.59242,-18.75812 2.6e-4,-2.7e-4 2.6e-4,-2.7e-4 0,0 -0.36556,-0.31158 -0.72524,-0.61767 -1.08833,-0.92616 -0.63448,0.0297 -1.90382,0.0902 -1.90382,0.0902 0,0 -2.94385,13.14413 -4.41653,19.71725 -5.24976,4.52001 -10.49968,9.0402 -15.749915,13.5607 2.64e-4,-2.6e-4 2.64e-4,-2.4e-4 0,4e-5 z"
   sodipodi:nodetypes="cccccccccccccccc"
   transform="matrix(-0.59730943,0,0,0.63643748,194.42749,-48.668212)" /><path
   transform="matrix(0.72584941,0,0,0.81206496,33.40482,-89.510007)"
   style="fill:none;stroke:none;stroke-width:3.51677918;stroke-linecap:round;stroke-linejoin:miter;stroke-miterlimit:4;stroke-dasharray:none;stroke-opacity:1"
   d="m 127.2506,156.6409 c 1.64901,0.51228 3.29746,1.02438 4.69802,2.34356 1.40057,1.31918 2.55198,3.44485 3.59223,5.68941 1.04025,2.24457 1.96883,4.60706 2.87315,7.1604 0.90432,2.55335 1.78373,5.29577 3.43501,6.98419 1.65128,1.68842 4.07233,2.3205 6.19465,2.25957 2.12232,-0.0609 3.94234,-0.81493 5.26398,-1.97841 1.32163,-1.16348 2.143,-2.73502 2.95583,-4.51365 0.81283,-1.77863 1.61686,-3.76381 1.94608,-10.71893 0.32921,-6.95512 0.18365,-18.8799 0.12663,-25.13727 -0.057,-6.25738 -0.0255,-6.84727 -0.78582,-6.5658 -0.76029,0.28147 -2.31226,1.43395 -3.62888,2.23576 -1.31662,0.80182 -2.39647,1.25203 -3.72403,1.36978 -1.32755,0.11776 -2.90147,-0.0973 -4.40682,-0.68407 -1.50535,-0.5868 -2.94094,-1.54504 -4.31639,-2.25976 -1.37545,-0.71472 -2.69056,-1.18577 -4.28227,-1.2812 -1.59171,-0.0954 -3.45949,0.18482 -5.07864,0.67325 -1.61915,0.48843 -2.98855,1.18482 -4.35849,1.88149"
   id="path3537-8-0-2-0-6-3"
   inkscape:connector-curvature="0"
   inkscape:path-effect="#path-effect3539-0-6-06-6-7-7"
   inkscape:original-d="m 127.2506,156.6409 c 1.64907,0.51208 3.29752,1.02419 4.94705,1.53684 1.15148,2.12593 2.30289,4.2516 3.45483,6.37811 0.92851,2.36263 1.8571,4.72512 2.78618,7.08858 0.87953,2.74323 1.75894,5.48565 2.63911,8.22998 2.42259,0.63219 4.84364,1.26427 7.26688,1.89722 1.8212,-0.75486 3.64122,-1.50884 5.46282,-2.26312 0.82149,-1.57253 1.64286,-3.14407 2.46471,-4.71577 0.80381,-1.98553 1.60783,-3.97071 2.41215,-5.95568 -0.14583,-11.92514 -0.29139,-23.84992 -0.43669,-35.7745 0.0318,-0.59015 0.0633,-1.18004 0.0945,-1.76967 -1.5521,1.1525 -3.10408,2.30498 -4.65707,3.45829 -1.08027,0.45023 -2.16012,0.90045 -3.24081,1.35117 -1.57432,-0.21538 -3.14824,-0.4304 -4.72307,-0.64525 -1.43571,-0.95876 -2.8713,-1.917 -4.30735,-2.87511 -1.31494,-0.47135 -2.63005,-0.9424 -3.94558,-1.41324 -1.86803,0.28007 -3.73581,0.56033 -5.60455,0.84096 -1.36958,0.69635 -2.73898,1.39274 -4.10887,2.08951"
   sodipodi:nodetypes="cccccccccccccccccc" /><path
   style="fill:#ff4000;fill-opacity:1;stroke:none;stroke-width:0.81610167;stroke-linecap:butt;stroke-linejoin:round;stroke-miterlimit:4;stroke-dasharray:none;stroke-opacity:1"
   d="m 122.95346,141.78055 c 0.0639,0.10515 0.1919,0.31552 0.3623,0.44945 0.1704,0.13392 0.38302,0.19129 0.60258,0.20023 0.21957,0.009 0.44596,-0.0304 0.68119,-0.18805 0.23522,-0.15761 0.47934,-0.43324 0.73918,-0.7679 0.25983,-0.33467 0.53544,-0.72841 0.71892,-1.15668 0.18347,-0.42828 0.2749,-0.89082 0.34973,-1.30039 0.0748,-0.40958 0.13294,-0.76554 0.052,-0.8377 -0.081,-0.0722 -0.30096,0.13944 -0.47791,0.30619 -0.17696,0.16675 -0.31033,0.28809 -0.49648,0.46399 -0.18616,0.17591 -0.42522,0.4065 -0.70561,0.66951 -0.28039,0.263 -0.60015,0.55659 -0.91417,0.79844 -0.31402,0.24185 -0.62125,0.43093 -0.92835,0.61994 -0.0158,0.21261 -0.0315,0.42494 -0.0394,0.53138 -0.008,0.10645 -0.008,0.10645 0.0561,0.21159 z"
   id="path3489-1-6-2-83-7-8"
   inkscape:connector-curvature="0"
   inkscape:path-effect="#path-effect3491-4-8-5-5-4-7"
   inkscape:original-d="m 122.88951,141.67541 c 0.12821,0.2101 0.25616,0.42047 0.38385,0.6311 0.21288,0.0571 0.4255,0.11447 0.63786,0.1721 0.22666,-0.0396 0.45305,-0.079 0.67918,-0.11816 0.24437,-0.27587 0.48849,-0.55149 0.73233,-0.82683 0.27586,-0.39398 0.55148,-0.78771 0.82682,-1.18117 0.0917,-0.4631 0.18309,-0.92565 0.27445,-1.38837 0.0583,-0.35643 0.11641,-0.71239 0.17443,-1.06848 -0.22014,0.21173 -0.4401,0.42333 -0.66066,0.63555 -0.13335,0.12127 -0.26673,0.24261 -0.40014,0.36404 -0.23889,0.23038 -0.47795,0.46098 -0.71775,0.69233 -0.32098,0.29466 -0.64075,0.58824 -0.96178,0.88304 -0.30703,0.18886 -0.92131,0.56702 -0.92131,0.56702 0,0 -0.0312,0.42496 -0.0473,0.63783 z"
   sodipodi:nodetypes="cssccccscscccac"
   transform="matrix(1.5397983,0,0,0.9750965,-67.16183,-107.5685)" /><path
   style="fill:none;fill-opacity:1;stroke:none;stroke-width:1.69918871;stroke-linecap:butt;stroke-linejoin:miter;stroke-miterlimit:4;stroke-dasharray:none;stroke-opacity:1"
   d="m 116.64182,152.59548 c -0.01,-0.53066 -0.0199,-1.0613 0.0701,-1.38235 0.0901,-0.32106 0.27966,-0.4322 0.6963,-0.54206 0.41663,-0.10986 1.05987,-0.21848 1.6627,-0.21979 0.60282,-0.001 1.16408,0.10442 1.50307,0.20585 0.33898,0.10144 0.45429,0.198 0.56709,0.53361 0.1128,0.33561 0.22278,0.90941 0.24735,8.73288 0.0246,7.82347 -0.0364,22.90063 -0.10441,30.57827 -0.068,7.67764 -0.14313,7.95584 -0.29226,8.32772 -0.14914,0.37189 -0.37186,0.83623 -0.91108,1.05652 -0.53921,0.22028 -1.3929,0.19525 -1.96961,-0.0193 -0.57671,-0.2145 -0.87447,-0.618 -1.06936,-0.9786 -0.19489,-0.36061 -0.28677,-0.67798 -0.33624,-8.38598 -0.0495,-7.70801 -0.0566,-22.80761 -0.0637,-37.90681 0,0 8e-5,0 8e-5,0 z"
   id="path3461-0-1-9-5-7"
   inkscape:connector-curvature="0"
   inkscape:path-effect="#path-effect3463-4-8-3-6-5"
   inkscape:original-d="m 116.64182,152.59548 c 0,0 -0.0194,-1.06131 -0.0299,-1.59199 0.19003,-0.1115 0.3797,-0.22253 0.56903,-0.33355 0.64389,-0.10891 1.28713,-0.21753 1.93021,-0.32594 0.56267,0.10562 1.12393,0.21134 1.68599,0.31758 0.11617,0.0966 0.23149,0.19314 0.34662,0.29023 0.11067,0.57444 0.22065,1.14824 0.33019,1.72264 -0.0604,15.07264 -0.12139,30.1498 -0.18286,45.22702 -0.0747,0.27816 -0.14977,0.55637 -0.2255,0.83521 -0.22264,0.46497 -0.44537,0.92931 -0.66904,1.39481 -0.85506,-0.0253 -1.70875,-0.0504 -2.56412,-0.0752 -0.29777,-0.40414 -0.59552,-0.80764 -0.89368,-1.21107 -0.0916,-0.31765 -0.18348,-0.63502 -0.27562,-0.95214 -0.007,-15.0988 -0.0214,-45.2976 -0.0214,-45.2976 z"
   sodipodi:nodetypes="cccccccccccccc"
   transform="matrix(0.51784933,0,0,0.66882622,56.467299,-59.136109)" /><path
   style="fill:none;stroke:none;stroke-width:2.7816596;stroke-linecap:butt;stroke-linejoin:miter;stroke-miterlimit:4;stroke-dasharray:none;stroke-opacity:1"
   d="m 107.00804,134.76739 c 2.1865,-1.08759 4.2989,-2.13831 6.68183,-2.6839 2.38293,-0.5456 5.00034,-0.56787 7.29216,-0.0375 2.29182,0.53036 4.25864,1.6133 6.22536,2.69618"
   id="path3533-7-8-2-5-0"
   inkscape:connector-curvature="0"
   inkscape:path-effect="#path-effect3535-5-7-8-2-3"
   inkscape:original-d="m 107.00804,134.76739 c 2.18645,-1.08769 4.29885,-2.13842 6.44787,-3.20723 2.61689,-0.0225 5.2343,-0.0448 7.85104,-0.0668 1.96707,1.08267 3.93389,2.1656 5.90044,3.2488"
   transform="matrix(0.94214886,0,0,1,7.7370472,-115.89081)"
   sodipodi:nodetypes="cccc" /><text
   id="text3837"
   y="-8.3539076"
   x="85.609093"
   style="font-style:normal;font-variant:normal;font-weight:normal;font-stretch:normal;font-size:16.70713615px;line-height:1.25;font-family:Eurostile-Bold;-inkscape-font-specification:Eurostile-Bold;letter-spacing:0px;word-spacing:0px;fill:#000000;fill-opacity:1;stroke:none;stroke-width:1.04419601"
   xml:space="preserve"><tspan
     style="stroke:none;stroke-width:1.04419601"
     y="6.5161076"
     x="85.609093"
     id="tspan3835"
     sodipodi:role="line" /></text>

</g></g><g
   id="g3970"
   style="fill:#cc0000;fill-opacity:1;stroke:#ff4000;stroke-opacity:1"><path
     id="path991-9-0"
     d="m 117.31836,87.734375 c -26.811589,0 -51.451989,9.321883 -70.867188,24.892575 h 6.070312 C 70.673476,99.316047 93.071842,91.451172 117.31836,91.451172 c 24.37208,0 46.87803,7.946275 65.08008,21.382808 a 1.7575816,1.7575816 0 0 1 0.84179,-0.21484 h 3.00782 a 1.7575816,1.7575816 0 0 1 1.66406,1.19336 l 0.94141,2.7793 c 0.0112,-0.0625 0.009,-0.12722 0.0215,-0.18946 a 1.7575816,1.7575816 0 0 1 0.006,-0.0332 c 0.14339,-0.6532 0.41846,-1.28063 0.80664,-1.83203 0.10022,-0.14333 0.21781,-0.27511 0.33594,-0.40625 C 170.3368,97.65736 144.98311,87.734375 117.31852,87.734375 Z M 34.765625,123.41992 c -19.112333,20.29764 -30.8320313,47.63355 -30.8320312,77.69922 0,62.59925 50.7855102,113.38672 113.3847662,113.38672 62.59925,0 113.38672,-50.78747 113.38672,-113.38672 0,-28.42247 -10.47009,-54.40863 -27.76172,-74.3125 h -2.05078 a 1.7575816,1.7575816 0 0 1 -1.39649,-0.69531 c -0.48808,0.29097 -1.0367,0.49393 -1.5957,0.60937 18.05484,19.54637 29.08789,45.67687 29.08789,74.39844 0,60.59061 -49.07931,109.66992 -109.66992,109.66992 -60.590612,0 -109.6679694,-49.07931 -109.6679694,-109.66992 0,-28.68328 11.0040354,-54.78247 29.0156254,-74.32031 h -0.150391 a 1.7501731,1.7501731 0 0 1 -1.75,-1.75 z"
     style="color:#000000;font-style:normal;font-variant:normal;font-weight:normal;font-stretch:normal;font-size:medium;line-height:normal;font-family:sans-serif;font-variant-ligatures:normal;font-variant-position:normal;font-variant-caps:normal;font-variant-numeric:normal;font-variant-alternates:normal;font-feature-settings:normal;text-indent:0;text-align:start;text-decoration:none;text-decoration-line:none;text-decoration-style:solid;text-decoration-color:#000000;letter-spacing:normal;word-spacing:normal;text-transform:none;writing-mode:lr-tb;direction:ltr;text-orientation:mixed;dominant-baseline:auto;baseline-shift:baseline;text-anchor:start;white-space:normal;shape-padding:0;clip-rule:nonzero;display:inline;overflow:visible;visibility:visible;opacity:1;isolation:auto;mix-blend-mode:normal;color-interpolation:sRGB;color-interpolation-filters:linearRGB;solid-color:#000000;solid-opacity:1;vector-effect:none;fill:#cc0000;fill-opacity:1;fill-rule:evenodd;stroke:#ff4000;stroke-width:0.25;stroke-linecap:butt;stroke-linejoin:miter;stroke-miterlimit:4;stroke-dasharray:none;stroke-dashoffset:0;stroke-opacity:1;color-rendering:auto;image-rendering:auto;shape-rendering:auto;text-rendering:auto;enable-background:accumulate"
     inkscape:connector-curvature="0" /><g
     id="g3965"
     style="fill:#cc0000;fill-opacity:1;stroke:#ff4000;stroke-opacity:1"><path
       style="color:#000000;font-style:normal;font-variant:normal;font-weight:normal;font-stretch:normal;font-size:medium;line-height:normal;font-family:sans-serif;font-variant-ligatures:normal;font-variant-position:normal;font-variant-caps:normal;font-variant-numeric:normal;font-variant-alternates:normal;font-feature-settings:normal;text-indent:0;text-align:start;text-decoration:none;text-decoration-line:none;text-decoration-style:solid;text-decoration-color:#000000;letter-spacing:normal;word-spacing:normal;text-transform:none;writing-mode:lr-tb;direction:ltr;text-orientation:mixed;dominant-baseline:auto;baseline-shift:baseline;text-anchor:start;white-space:normal;shape-padding:0;clip-rule:nonzero;display:inline;overflow:visible;visibility:visible;opacity:1;isolation:auto;mix-blend-mode:normal;color-interpolation:sRGB;color-interpolation-filters:linearRGB;solid-color:#000000;solid-opacity:1;vector-effect:none;fill:#cc0000;fill-opacity:1;fill-rule:evenodd;stroke:#ff4000;stroke-width:0.25;stroke-linecap:butt;stroke-linejoin:miter;stroke-miterlimit:4;stroke-dasharray:none;stroke-dashoffset:0;stroke-opacity:1;color-rendering:auto;image-rendering:auto;shape-rendering:auto;text-rendering:auto;enable-background:accumulate"
       d="m 117.31836,85.466797 c -28.359398,0 -54.330348,10.215632 -74.449219,27.160153 h 0.894531 a 1.7501731,1.7501731 0 0 1 0.558594,0.0937 C 64.148583,96.330943 89.581485,86.482422 117.31836,86.482422 c 28.06714,0 53.77201,10.089928 73.69922,26.832028 0.24669,-0.14643 0.50337,-0.27617 0.77539,-0.36523 0.0887,-0.03 0.18175,-0.0455 0.27148,-0.0723 C 171.90427,95.782887 145.81697,85.466797 117.31836,85.466797 Z M 37.169922,118.98828 c -1.55e-4,0.003 -0.0018,0.005 -0.002,0.008 -4.1e-4,0.006 4.23e-4,0.0117 0,0.0176 z m -4.00586,4.29297 c -0.284368,0.029 -0.571522,0.0469 -0.863281,0.0469 -0.05642,0.003 -0.12356,0.0156 -0.175781,0.0156 h -0.175781 -0.08008 -0.0957 -0.04688 c -0.338948,0.37279 -0.669785,0.75365 -1.003906,1.13086 v 0.57422 a 1.7501731,1.7501731 0 0 1 -1.75,1.75 h -0.255859 c -16.879431,20.1008 -27.0507814,46.02166 -27.0507814,74.32031 0,63.86767 51.7846684,115.6543 115.6523474,115.6543 63.86767,0 115.6543,-51.78663 115.6543,-115.6543 0,-28.29515 -10.17077,-54.21274 -27.04688,-74.3125 h -1.32031 c 17.05359,20.01142 27.35156,45.95591 27.35156,74.3125 0,63.31885 -51.31982,114.63867 -114.63867,114.63867 -63.318852,0 -114.6367224,-51.31982 -114.6367224,-114.63867 0,-30.05239 11.5658314,-57.39584 30.4824214,-77.83789 z"
       id="circle3654"
       inkscape:connector-curvature="0" /></g></g><text
   xml:space="preserve"
   style="font-style:normal;font-variant:normal;font-weight:normal;font-stretch:normal;font-size:16px;line-height:1.25;font-family:Eurostile-Bold;-inkscape-font-specification:Eurostile-Bold;letter-spacing:0px;word-spacing:0px;fill:#cc0000;fill-opacity:1;stroke:#ff4000;stroke-width:0.25;stroke-miterlimit:4;stroke-dasharray:none;stroke-opacity:1"
   id="text3937"
   transform="translate(1.9993045,1.7677664)"><textPath
     xlink:href="#path3957"
     id="textPath3961"
     style="font-size:12px;fill:#cc0000;fill-opacity:1;stroke:#ff4000;stroke-width:0.25;stroke-miterlimit:4;stroke-dasharray:none;stroke-opacity:1">CUT OFF ONE HEAD,  AND TWO WILL TAKE ITS PLACE</textPath></text>

<circle
   style="fill:none;fill-opacity:1;fill-rule:evenodd;stroke:none;stroke-width:0.25;stroke-miterlimit:4;stroke-dasharray:none;stroke-opacity:1"
   id="path3957"
   cx="1.0703859"
   cy="252.61566"
   r="130.41051"
   transform="matrix(-0.88769711,0.46042789,0.46042789,0.88769711,0,0)" /><text
   xml:space="preserve"
   style="font-style:normal;font-variant:normal;font-weight:normal;font-stretch:normal;font-size:16px;line-height:1.25;font-family:Eurostile-Bold;-inkscape-font-specification:Eurostile-Bold;letter-spacing:0px;word-spacing:0px;fill:#ff2a2a;fill-opacity:1;stroke:none;stroke-width:0.25;stroke-miterlimit:4;stroke-dasharray:none"
   x="187.83519"
   y="411.49585"
   id="text4101"><tspan
     sodipodi:role="line"
     id="tspan4099"
     x="187.83519"
     y="411.49585"
     style="font-size:18.66666603px;text-align:center;text-anchor:middle;fill:#bf0000;fill-opacity:1;stroke:#ff4000;stroke-width:0.25;stroke-miterlimit:4;stroke-dasharray:none;stroke-opacity:1">Pandemic</tspan><tspan
     sodipodi:role="line"
     x="187.83519"
     y="434.82919"
     id="tspan4103"
     style="font-size:18.66666603px;text-align:center;text-anchor:middle;fill:#bf0000;fill-opacity:1;stroke:#ff4000;stroke-width:0.25;stroke-miterlimit:4;stroke-dasharray:none;stroke-opacity:1">Pedals</tspan></text>

</g></svg>